<?xml version="1.0" standalone="no"?>
<!DOCTYPE svg PUBLIC "-//W3C//DTD SVG 1.1//EN" "http://www.w3.org/Graphics/SVG/1.1/DTD/svg11.dtd" >
<svg xmlns="http://www.w3.org/2000/svg" xmlns:xlink="http://www.w3.org/1999/xlink" version="1.1">
<metadata>
Created by FontForge 20170731 at Wed Jan 13 07:30:30 2021
 By Aleksey,,,
</metadata>
<defs>
<font id="cryptofont" horiz-adv-x="1024" >
  <font-face 
    font-family="cryptofont"
    font-weight="400"
    font-stretch="normal"
    units-per-em="1024"
    panose-1="0 0 0 0 0 0 0 0 0 0"
    ascent="960"
    descent="-64"
    bbox="-3 -67 1033.1 962.087"
    underline-thickness="0"
    underline-position="0"
    unicode-range="U+0001-FFFD"
  />
<missing-glyph 
 />
    <glyph glyph-name=".notdef" unicode="&#xfffd;" 
 />
    <glyph glyph-name="glyph1" horiz-adv-x="0" 
d="M0 0v0v0v0z" />
    <glyph glyph-name="glyph1" horiz-adv-x="0" 
d="M0 0v0v0v0z" />
    <glyph glyph-name="nonmarkingreturn" horiz-adv-x="341" 
 />
    <glyph glyph-name="uni0001" horiz-adv-x="0" 
d="M0 0v0v0v0z" />
    <glyph glyph-name="space" unicode=" " horiz-adv-x="512" 
d="M0 0v0v0v0z" />
    <glyph glyph-name="uniE900" unicode="&#xe900;" 
d="M512 -62q-51 0 -100 10t-95 29t-87 46q-42 28 -78 64t-64 78q-28 41 -47 87t-29 95t-10 100q0 52 10 101q10 50 29 96t47 87q27 42 63 78t78 64t88 47t95 29t101 10v0v0q51 0 100 -10q50 -10 95.5 -29t87.5 -47q41 -28 77 -64t64 -78t47 -87.5t28 -95.5q10 -49 10 -100
t-10 -101q-10 -49 -29 -94.5t-46 -87.5q-28 -42 -64 -78t-78 -64q-41 -27 -87 -46t-95 -29t-100 -10v0h-1v0v0zM513 938q-50 0 -97 -9q-48 -9 -92 -27.5t-84 -45.5q-40 -26 -74 -61q-35 -35 -62 -75q-26 -40 -44.5 -84t-27.5 -92t-9 -97t9 -96q10 -47 28 -91t45 -84t61 -75
q35 -34 75 -61q40 -26 84 -44.5t91 -27.5t96 -9v0v0q49 0 97 9q47 9 91 27.5t84 45.5q40 26 74 61q35 35 61 75q27 40 45 83.5t28 91.5q9 47 9 96t-9 96q-9 48 -27.5 92t-44.5 84q-27 40 -61 75q-35 35 -75 61q-40 27 -84 45t-91 28q-47 9 -96 9v0v0v0zM514 911
q-96 0 -181 -36q-84 -37 -146.5 -100t-98.5 -148t-36 -181t36 -181q37 -84 99.5 -147t146.5 -99t179 -36q96 0 180 36q84 37 146.5 99.5t98.5 147.5q36 84 36 180q0 97 -36 181q-36 85 -98.5 148t-146.5 100q-84 36 -179 36v0zM719 357q-17 -19 -34.5 -38t-36.5 -37
q-46 -44 -93 -86.5t-98 -81.5q-4 -2 -7 -4.5t-7 -4.5q-16 -11 -21.5 -10t-12.5 20q-7 17 -13.5 34.5t-11.5 35.5q-23 71 -42.5 143t-33.5 146q-2 8 -3.5 16t-0.5 16q0 7 2 13.5t6 11.5q17 20 35.5 39.5t37.5 38.5q46 45 94.5 88t99.5 83q6 4 11.5 8t11.5 7q8 5 12 4t7 -10
q7 -17 14 -33.5t13 -34.5q22 -70 41.5 -141.5t35.5 -143.5q2 -13 4 -25t4 -25q1 -9 -3.5 -16t-10.5 -13v0z" />
    <glyph glyph-name="uniE901" unicode="&#xe901;" 
d="M117 443q1 12 2.5 24.5t5.5 24.5q10 48 30 93.5t50 82.5q5 7 9.5 13t10.5 12l-44 41q-6 -9 -12 -17.5t-11 -17.5q-27 -47 -42 -99t-19 -104q-2 -13 -1.5 -26.5t0.5 -25.5q0 -13 1.5 -26t3.5 -26q3 -26 10 -51t16 -48q-6 25 -9.5 50t-3.5 51v24t3 25zM219 594
q-10 -26 -16.5 -52.5t-8.5 -53.5q-1 -6 -1.5 -13t0.5 -13v-13.5t1 -13.5l1 -14q0 -3 0.5 -6t1.5 -6l3 -27l2 27v6t1 6l2 13q0 7 1.5 13.5t1.5 11.5q1 7 3 13t3 12q7 25 18 48t24 44q9 14 19 26.5t22 24.5l-39 36q-13 -16 -22 -33.5t-17 -35.5v0zM634 755q20 18 21.5 42.5
l1.5 24.5l-83 -92l17 1.5t43 23.5zM323 236l14 39l-21.5 -28t-24.5 -34t-1 -15.5t12 -10.5q11 -1 22.5 9.5t12.5 20.5q2 14 -6 16.5l-8 2.5v0zM543 594q9 15 20 38l11 23l-20 -23t-45 -51t-47 -52q-21 -23 -25 -24q-8 -2 -11 16.5l-3 18.5q-22 -54 0.5 -69t30.5 2
q22 3 55 17t51 28q17 15 13 40.5t-30 35.5v0zM540 533q-17 -20 -46.5 -30.5l-29.5 -10.5l67 83l12 -12.5t-3 -29.5v0zM942 672q13 -6 24 -14t21 -16q-34 115 -97 171q-63 57 -126 79t-111 21t-50 -1q5 8 21.5 18.5t34.5 17.5l-75 12t-159 -45q1 13 12.5 28.5l11.5 15.5
q-116 -50 -136.5 -103t1.5 -89q-18 9 -36.5 17.5t-37.5 17.5q-57 27 -99.5 47t-45.5 20q-5 2 -7.5 0.5l-2.5 -1.5l-1 -2t4 -6q22 -22 42 -41.5t39 -38.5q-36 -33 -64 -73t-47.5 -84.5t-29.5 -93.5q-10 -50 -10 -102q0 -101 38 -190q39 -90 106.5 -156.5t157.5 -104.5
q90 -39 192 -39t192 39q90 38 157.5 104.5t106.5 156.5q38 89 38 190q0 67 -16.5 129.5t-47.5 115.5v0zM905 743q-49 27 -101.5 49.5t-105.5 28.5q1 10 0 20.5t-2 21.5q44 -6 96.5 -34t112.5 -86zM641 864l-46 -49q-27 -9 -53.5 -24t-52.5 -39q0 14 39.5 58.5t112.5 53.5v0z
M564 931q-34 -15 -54 -46q-21 -32 -32 -64t-14 -56l-3 -24q-33 50 -22 85q11 36 38 59t56 34q29 12 31 12zM460 712l6.5 -11.5t20.5 -10.5q7 1 37 31q31 30 64.5 66t60.5 66l27 30l7 -51t-30 -92q-37 -40 -64 -49.5l-27 -9.5l35 -5.5t78 16.5q11 -39 19.5 -74t8.5 -40
q-3 -6 -32 -53.5t-33 -51.5q-1 -2 -10.5 -3t-16.5 -1q-14 -2 -22 -3.5t-12 -3.5q-6 -4 -32.5 -52t-42.5 -79q-15 -3 -29.5 -9t-25.5 -20q6 3 20.5 3.5t26.5 0.5q11 -1 34 -21.5t26 -54.5q1 -3 1 -3.5v-1.5q0 -12 -5.5 -23t-12.5 -19q-4 -3 -16 -11.5t-23 -14.5
q-10 -8 -20.5 -14.5t-19.5 -13.5q-4 -2 -10 -3t-16 0l-31 4q14 14 44.5 37.5t42.5 29.5q15 7 22.5 16.5t0.5 26.5q-6 18 -22.5 20.5l-16.5 2.5l11.5 2t22.5 1q-14 6 -31 4.5t-26 -7.5q-11 -8 -15.5 -32t-11.5 -43t-21.5 -30t-36.5 -27q-13 -8 -21.5 -10.5t-14.5 -1.5
q-13 3 -26.5 9t-23.5 11q-6 11 -12 38.5t-7 41.5q3 7 12.5 19.5t15.5 21.5q11 16 18 26.5t10 19.5q5 13 22 73t25 93q8 -14 16 -34.5t3 -33.5q26 28 21.5 57t-10.5 42q-5 14 -7.5 37.5t8.5 47.5q11 26 39 75l28 49v0zM439 184q8 9 10.5 22.5t4.5 18.5q1 6 4.5 13t9.5 8
q7 1 17.5 -4t8.5 -16q-1 -10 -10.5 -13t-17.5 -8q-6 -4 -16 -11.5t-11 -9.5v0zM394 912v0v-1q-4 -8 -18 -72.5t46 -118.5q-56 19 -69 49q-13 31 -5 60.5t25 53.5q17 23 21 28v1v0zM280 742q38 -20 67 -36t34 -20l1 -0.5t1 -1.5q4 -5 6 -12t-5 -17q-3 -5 -8 -4t-11 5
t-34.5 26.5t-63.5 52.5q-11 9 -21 18t-21 17q14 -7 28 -14.5t27 -13.5v0zM507 -1q-5 0 -10.5 -0.5t-11.5 -0.5q-89 0 -169 37q-79 36 -138 98.5t-93 145.5q-35 83 -35 175q0 71 18 130q18 60 39.5 102.5t40.5 67.5q19 24 21 26q38 -36 76 -71.5t86 -79.5q-12 -26 -14 -41.5
t4 -29.5q8 -19 8.5 -31t-2.5 -24q-2 -6 -9 -33t-15.5 -58t-16.5 -57q-8 -27 -10 -34q-6 -13 -33 -47t-28 -49q0 -14 10.5 -61.5t26.5 -56.5q13 -7 39 -18t48 -14q8 -1 14.5 -0.5t10.5 3.5q15 10 21.5 12.5t15.5 1.5l3 -1q4 -1 8.5 -2t10.5 -2q13 -1 28 0t28 10
q20 15 46.5 31t37.5 26q14 13 22 31t8 39q0 18 11 33t25 30l39.5 39.5l40.5 40.5q34 -12 48 -51t14 -65q0 -37 -15 -79q-16 -43 -48 -80t-82 -63t-119 -30v0zM869 171q-9 94 -59 142t-78 62q33 4 88 43.5t7 169.5q2 -6 5 -55.5t-35 -83.5q-39 -35 -84 -31t-52 4
q-6 1 -32 -25.5t-65 -78.5q-3 2 -17.5 6t-33.5 3q19 36 42.5 77.5t27.5 45.5q2 1 12 2.5t17 2.5q15 1 23 3t11 5q1 2 10 16t19 32q7 -1 20.5 -2t15.5 0q1 1 15 25.5t15 29.5q0 2 -10.5 45.5t-19.5 78.5q91 -43 145 -108t72.5 -137.5t2.5 -143.5q-15 -72 -62 -128v0zM716 758
q6 1 48 -7t90 -43.5t87 -109.5q38 -74 36 -206q-16 101 -58 171q-43 70 -88 113t-80 62l-35 20v0z" />
    <glyph glyph-name="uniE902" unicode="&#xe902;" 
d="M295 448h151q16 0 27.5 -11.5t11.5 -27.5v-229q0 -8 3 -15t8 -12l206 -207q19 -18 42.5 -8t23.5 36v947q0 26 -23.5 36t-42.5 -8l-435 -436q-18 -18 -8 -41.5t36 -23.5v0z" />
    <glyph glyph-name="uniE903" unicode="&#xe903;" 
d="M1018 448q1 -105 -39 -197q-39 -91 -107.5 -160t-159.5 -108q-92 -40 -196 -41q-107 -1 -201 40t-163 111t-108 164t-38 199q1 101 41 193t111 161.5t167 109.5t209 35q98 -3 186 -44q89 -40 155.5 -108t105.5 -159q38 -91 37 -196v0zM511 -12q96 0 180 36t146.5 98
t99.5 145q36 83 37 177q0 98 -35 182q-36 83 -96 144.5t-139 98.5q-79 36 -165 40q-52 3 -100 -4q-47 -7 -91.5 -24t-84.5 -44q-41 -26 -77 -63q-33 -33 -58 -70q-26 -37 -42.5 -77.5t-25.5 -84.5t-9 -91q0 -97 36 -181q37 -84 99.5 -147t146.5 -99t178 -36v0zM512 17
q-87 -1 -167 33t-140 94.5t-94 143.5q-35 83 -31 179q3 83 37 159q34 75 92.5 132.5t137.5 90.5q79 34 172 33q87 -1 165 -36q79 -34 138 -94t93 -143q33 -82 30 -179q-3 -83 -38 -158q-34 -75 -92 -132t-136 -90q-77 -34 -167 -33v0zM419 742l-24 -34t-25 -35
q-23 -33 -47 -67q-23 -33 -46.5 -66.5t-47.5 -67.5q-23 -33 -47 -67q-3 -5 -7.5 -10.5t-5.5 -10.5q-2 -12 -1.5 -24.5t0.5 -25.5h115h114v-71.5v-70.5h89h89h89h88q10 26 19.5 52t18.5 52h-7.5h-6.5q-5 -7 -10 -13.5t-11 -11.5q-13 -13 -29.5 -15.5t-32.5 -2.5
q-41 -1 -81 -1h-81h-4.5h-4.5q0 2 0.5 2.5l0.5 0.5q30 32 60 63.5t60 63.5q25 26 47 54t39 60q15 28 23.5 58.5t3.5 63.5q-4 29 -18 51.5t-37 40.5q-24 19 -52.5 26.5t-59.5 5.5q-38 -3 -67 -21.5t-48 -51.5l-4 -8t-5 -8h-0.5t-0.5 1v44v44h-22h-23v0zM468 236
q13 13 25.5 26.5t24.5 27.5q25 26 49.5 53t48.5 54q20 23 35.5 49t25.5 56q10 26 12 53.5t-9 54.5q-11 29 -31.5 47.5t-50.5 22.5q-32 5 -59.5 -5.5t-47.5 -35.5q-13 -15 -20.5 -32t-6.5 -37q1 -42 0.5 -83.5t-0.5 -83.5v-6v-6h35.5h35.5v-29v-28h-35.5h-35.5v-47.5v-47.5
q1 -1 2 -1.5t2 -1.5v0zM396 657q-24 -34 -47 -67q-24 -33 -47 -66t-47 -67q-23 -33 -47 -66h95.5h92.5v132v134z" />
    <glyph glyph-name="uniE904" unicode="&#xe904;" 
d="M1011 450q-2 -104 -41 -196t-107 -160.5t-162 -107.5q-93 -39 -205 -36q-98 3 -186 41t-154 105t-104 159q-39 92 -37 201q1 99 38 189q38 89 105.5 156.5t161.5 106.5q93 39 205 37q100 -3 186 -40q87 -38 152.5 -103.5t104.5 -155.5t43 -196v0zM246 211
q1 -36 14.5 -66.5t44.5 -52.5q10 -7 21.5 -8t23.5 5t20 16t5 24q-4 14 -9.5 28t-13.5 26q-14 19 -30 37.5t-29 37.5q-26 36 -30 76.5t2 81.5q5 36 5 70t-13 68q-10 23 -19.5 47t-19.5 47q-10 26 -5.5 36t29.5 23q1 -4 3 -8.5t3 -9.5h1.5t1.5 1q1 8 2 17l2 18q33 -22 49 -17
t30 41q7 17 18.5 30t29.5 18q24 7 48 12.5t48 9.5q19 3 38 1t37 -10q14 -6 21.5 -15.5t6.5 -22.5q-1 -17 -7 -31.5t-17 -26.5q-26 -31 -58 -50.5t-69 -32.5q-9 -4 -18 -7t-19 -6q1 -1 1 -2t1 -2q24 6 48.5 11t47.5 13q41 14 77.5 35.5t61.5 57.5q21 31 18.5 55.5t-30.5 47.5
q-9 7 -20 12t-21 7q-25 2 -50.5 3t-50.5 0q-38 -1 -75 -10.5t-65 -36.5q-24 -22 -54.5 -37t-41.5 -50q-5 -2 -9 -3.5t-7 -1.5q-18 3 -27.5 -7t-17.5 -23q-2 -4 -2.5 -10t1.5 -10q12 -29 24.5 -57.5t22.5 -57.5q10 -27 14.5 -55.5t-1.5 -57.5q-7 -33 -6 -66.5t5 -66.5
q4 -29 18.5 -52.5t29.5 -46.5q13 -19 26 -37.5t26 -37.5q-19 -16 -47 9.5t-44 69.5v0zM718 561q-4 3 -7 4.5t-5 3.5q-21 14 -28.5 39.5t1.5 48.5q10 24 34 36t52 7q22 -4 39 -25.5t17 -45.5q1 -29 -13.5 -49.5t-37.5 -33.5q-42 -24 -66.5 -22.5t-52.5 34.5
q-16 20 -35.5 35.5t-43.5 26.5q-18 7 -38 7.5t-34 -7.5q7 -2 13.5 -4t12.5 -5q27 -11 46.5 -30t39.5 -38q11 -12 22 -24.5t25 -20.5q29 -17 60.5 -16.5t61.5 12.5q54 21 74.5 71.5t-1.5 103.5q-12 29 -33.5 47.5t-53.5 23.5q-36 5 -66 -6.5t-48 -46.5q-21 -40 -7 -82t72 -44
v0zM689 196q-2 6 -2.5 10t-1.5 7q-5 24 -20.5 32t-36.5 -4q-33 -19 -44.5 -50.5t-1.5 -67.5q3 -10 10 -20.5t16 -17.5q32 -24 68 -12t57 42q22 30 24.5 64t-8.5 70q-15 50 -45 90.5t-69 73.5q-24 21 -50.5 39t-52.5 37l-2 -2l-2 -2q3 -15 3.5 -31t13.5 -28q12 -12 26 -22.5
t27 -22.5q28 -24 53 -51.5t43 -60.5q24 -46 17 -83t-34 -64q-11 -10 -23 -10.5t-23 8.5q-17 13 -17.5 37.5t15.5 42.5q11 14 22.5 15t25.5 -11q2 -1 5 -3t7 -5v0zM785 396q2 -16 10 -20.5t25 0.5q25 8 43 25t29 41q7 14 1 29t-21 19q-9 3 -19.5 3.5t-18.5 -1.5
q-25 -8 -49 -17.5t-48 -18.5q-13 -5 -25.5 -5.5t-23.5 6.5l-26 18t-25 19q-21 17 -42 34.5t-43 33.5q-7 5 -17 7.5t-21 7.5q3 -11 5.5 -18t4.5 -13q0 1 1 1.5t2 1.5q22 -21 45 -42.5t46 -43.5q13 -12 26.5 -24t27.5 -24q12 -10 26 -11.5t28 4.5q23 9 45 19.5t44 19.5
q10 5 21 10t23 -3q4 -20 -15 -39t-42 -16q0 5 -0.5 10t-1.5 10l-1 0.5t-2 0.5q-3 -6 -6.5 -12.5t-5.5 -11.5v0zM346 569q0 -1 -0.5 -2t-0.5 -2q3 -1 5.5 -3t5.5 -3q24 -12 38 -36t5 -54q-8 -25 -16.5 -50.5t-18.5 -49.5q-14 -34 -20 -69t5 -72q10 -36 42 -59.5t66 -22.5
q-2 2 -3.5 2.5t-3.5 1.5q-28 11 -42 32.5t-20 50.5q-7 31 1.5 59.5t19.5 56.5q14 36 26 72.5t11 76.5q-2 23 -14.5 41t-34.5 24q-12 3 -25 3.5t-26 2.5zM390 586q10 -2 20.5 -4t20.5 -5q17 -4 27 -16t10 -28q0 -10 -1 -19.5t-3 -18.5q-4 -29 3.5 -54.5t26.5 -46.5
q40 -46 89 -79t102 -61q-10 17 -20 33.5t-23 29.5q-15 15 -33 27t-35 25q-29 21 -45 49t-14 65q0 17 -1.5 33.5t-6.5 32.5q-3 10 -10 21t-16 17q-22 14 -45 9.5t-46 -10.5v0zM424 106q23 -19 48.5 -21t48.5 16q10 8 18 19t13 23q17 38 13 82.5t-47 71.5q-7 4 -13 9t-12 9
q-16 11 -31.5 22t-32.5 23q-5 -12 -9.5 -23t-8.5 -22q10 -7 19.5 -13t19.5 -12q26 -14 41.5 -36.5t22.5 -50.5q7 -25 -2 -49t-30 -34q-14 -6 -29 -8t-29 -6v0zM152 422q12 -1 23.5 5t16.5 17q5 9 4 18.5t-8 18.5q-8 10 -18.5 13.5t-24.5 0.5q-19 -6 -32 -24.5t-14 -42.5
q-1 -28 6 -53.5t16 -50.5q9 -28 22 -55t33 -49q4 -4 10.5 -8t9.5 -2q5 2 9.5 8.5t5.5 12.5q3 11 3.5 22.5t0.5 23.5q0 14 -1 28l-2 28q-1 33 1.5 66t13.5 66q-23 -15 -29.5 -36t-8.5 -44q-1 -24 -1.5 -48t-1.5 -48q-1 -5 -3 -10.5t-4 -12.5q-3 4 -4.5 5.5t-2.5 3.5
q-19 32 -31 67t-19 71q-5 28 8.5 43.5t41.5 13.5q2 -3 4.5 -6.5t5.5 -10.5q-7 -7 -14.5 -15t-15.5 -16zM751 333q22 3 39.5 -7t26.5 -31q4 -10 1 -17.5t-14 -9.5q-11 -1 -22 -0.5t-23 0.5q3 -12 6 -24.5t6 -25.5h24h23q2 0 3.5 1t2.5 1q23 9 29 26t6 42q-1 38 -31.5 56
t-61.5 13q-18 -2 -25 -14t0 -30l5.5 11zM328 548q-51 -37 -40.5 -89t60.5 -91q5 11 9.5 21.5t8.5 21.5q-24 30 -43 61.5t5 75.5v0z" />
    <glyph glyph-name="uniE905" unicode="&#xe905;" 
d="M512 954q104 1 196 -39q93 -39 162 -108.5t109 -163.5q39 -94 38 -201q-2 -102 -41 -192q-40 -90 -108 -157.5t-160 -107.5q-92 -39 -199 -39q-102 1 -194 40q-92 40 -161 109.5t-109 164.5q-39 95 -37 205q3 99 43 188q39 89 107 156t159 107q91 39 195 38v0zM512 909
q-50 -1 -96 -10q-47 -10 -89 -28.5t-80 -46.5q-39 -28 -73 -64q-57 -62 -87 -136t-33 -158q-3 -101 33 -187q36 -87 98.5 -150.5t146.5 -99.5t177 -37q97 0 180 35q84 36 145.5 97t97.5 142t39 171q3 100 -34 186q-36 87 -99.5 150.5t-147.5 99.5q-84 37 -178 36v0zM943 451
q1 -88 -34 -168q-34 -79 -94.5 -139t-142.5 -93q-82 -34 -177 -31q-83 3 -158 37q-75 35 -132 93t-91 137q-33 79 -32 170q1 87 35 165q35 77 94 135.5t139 91.5q80 34 172 32q86 -2 163 -36t134 -92t91 -136q33 -77 33 -166v0zM256 406h46.5h47.5q-13 -52 -25.5 -103.5
t-25.5 -103.5h88h89h89h88q7 25 13 50t13 50h-101h-100q7 27 13.5 54t13.5 53h50h50q5 22 10.5 43t10.5 43h-50h-50q7 27 13.5 54t13.5 54h95.5h95.5q6 26 12.5 51.5t12.5 50.5h-86h-86h-86h-87q-13 -52 -26 -104.5t-26 -105.5h-47.5h-47.5q-5 -22 -10.5 -43t-10.5 -43v0z
" />
    <glyph glyph-name="uniE906" unicode="&#xe906;" 
d="M512 956q-105 0 -198 -40q-92 -40 -161 -109t-109 -161q-40 -93 -40 -198t40 -198q40 -92 109 -161t161 -109q93 -40 198 -40t198 40q92 40 161 109t109 161q40 93 40 198t-40 198q-40 92 -109 161t-161 109q-93 40 -198 40zM728 211q-4 -5 -9.5 -7t-13.5 -2
q-4 0 -8.5 1.5t-8.5 4.5t-7 7l-6 8l-163 407l-60 -150h29q13 0 22 -9t9 -21v-1q0 -13 -9 -22t-22 -9h-54l-79 -195q-2 -4 -5 -8t-7 -7t-8.5 -4.5t-9.5 -1.5q-7 0 -13 2t-10 7q-4 4 -6 10t-2 13q0 3 0.5 6t1.5 6l71 172h-30q-13 0 -22 9t-9 22v0q0 13 9 22t22 9h56l75 181
q7 16 18 24t25 8h15q15 0 25.5 -8t17.5 -24l172 -415q1 -3 1.5 -6t0.5 -6q0 -7 -2 -13t-6 -10z" />
    <glyph glyph-name="uniE907" unicode="&#xe907;" 
d="M201 462q-25 1 -42 -15.5t-17 -41.5q-1 -23 15.5 -40t40.5 -18q24 0 41 17t17 41t-16 40.5t-39 16.5v0zM511 955q-105 0 -197 -40q-92 -39 -161 -107.5t-109 -159.5q-40 -92 -40 -196q0 -105 40 -196q40 -92 109 -160t161 -108t197 -40t198 40q92 40 161 108t109 160
q40 91 40 196q0 104 -40 196q-40 91 -109 159.5t-161 107.5q-93 40 -198 40zM814 300q-1 -2 -3.5 -2t-4.5 1q-22 8 -37 22.5t-24 35.5v5t2 4q9 8 18.5 16.5t19.5 17.5q5 -29 21 -44t45 -16q0 -1 0.5 -1.5t0.5 -1.5q-9 -10 -18.5 -19t-19.5 -18v0zM903 389q-1 7 -2 14.5
t-3 13.5q-10 29 -38.5 37t-51.5 -12q-17 -15 -33.5 -30.5t-32.5 -31.5q-12 -11 -23 -22.5t-21 -22.5q-22 -23 -48 -33t-58 -4q-25 6 -43.5 20.5t-30.5 38.5q-3 5 -2.5 9t5.5 8q9 7 17.5 14.5t17.5 15.5q2 -4 2.5 -7.5t1.5 -6.5q5 -22 25.5 -35.5t41.5 -7.5q25 6 37.5 26
t6.5 45q-6 27 -34.5 38t-51.5 -6q-17 -13 -33.5 -28t-32.5 -30q-3 -2 -4.5 -6.5t-2.5 -8.5q-8 -34 -33 -55.5t-61 -25.5q-30 -3 -59 11.5t-45 44.5q-6 11 -5 14.5t9 11.5q8 6 16 12.5t17 14.5q0 -4 0.5 -7t1.5 -6q4 -25 24.5 -38.5t45.5 -8.5q23 5 35.5 26t7.5 44
q-8 30 -37.5 40.5t-53.5 -8.5q-16 -13 -32.5 -27.5t-32.5 -29.5q-3 -2 -5 -7.5t-2 -9.5v-30.5v-31.5q0 -3 -0.5 -6.5t-1.5 -7.5q-14 -2 -25 3.5t-20 15.5q-25 -14 -51 -16t-52 10q-18 7 -30.5 20.5t-20.5 30.5q-17 33 -7.5 70.5t40.5 60.5q13 10 27 14.5t30 5.5q15 1 30 -2
t28 -10q14 -8 24.5 -19t18.5 -23h2h2q0 4 0.5 8t0.5 8q1 37 0.5 73.5t-0.5 72.5q0 4 0.5 8t0.5 8q10 4 22 0.5t20 -12.5q6 -7 9 -14.5t3 -16.5v-41v-40v-7.5v-8.5q46 20 82.5 10.5t65.5 -48.5h2h2q1 4 1.5 8t0.5 8q1 28 0.5 55.5t-0.5 54.5q0 5 0.5 9.5t1.5 8.5
q3 15 13.5 24.5t24.5 12.5q9 2 12 -0.5t4 -11.5v-19v-19v-38.5v-38.5v-6.5v-7.5q54 20 93 3.5t63 -69.5q11 10 22 19.5t22 18.5q11 10 23 18.5t27 12.5q37 11 74 -5.5t53 -50.5q3 -8 2.5 -12.5t-6.5 -10.5q-8 -9 -16 -17t-17 -16v0z" />
    <glyph glyph-name="uniE908" unicode="&#xe908;" 
d="M75 701q54 32 108 63q55 32 109.5 63.5t108.5 62.5l110 64q18 -10 82 -47q64 -36 136.5 -78.5t136.5 -79.5t82 -47q1 -3 1 -7v-7v-133v-162.5v-137.5q-1 -58 -1 -60q-54 -32 -109 -63q-55 -32 -109.5 -63.5t-108.5 -62.5q-55 -32 -110 -63q-54 31 -109 63q-54 31 -109 63
t-109 63q-54 32 -109 63q0 4 -1 81q0 78 -0.5 170.5t0.5 171.5q0 78 1 83v0zM492 895q-1 0 -57 -33q-56 -32 -122.5 -71t-121.5 -71l-55 -32l265 -151l33.5 58.5t53.5 92.5q2 4 3 8t1 9q0 45 0.5 116t-0.5 74v0zM115 655l1 -412l22 13q23 13 51.5 29.5t55.5 31.5
q26 15 36 20q11 6 11 8t6 13q18 33 48.5 87t31.5 57q-33 19 -78 45q-45 27 -86.5 50.5t-69.5 40.5l-29 17v0zM907 653l-261 -154l32.5 -57.5t52.5 -91.5q2 -4 5 -6.5t6 -5.5q8 -4 35 -20q27 -15 56 -31.5t52 -29.5l23 -14l-1 410v0zM533 895l-0.5 -73t-0.5 -119q0 -4 1 -8
t3 -7t16 -27t30.5 -51.5t29.5 -50.5l13 -22l261 153l-353 205v0zM495 3v190l-191 110l-167 -96l358 -204v0zM531 192l-1 -189l358 204l-63 37t-104 60q-12 -6 -43 -24t-63.5 -37.5l-57.5 -34.5l-26 -16v0zM496 239v176l-57.5 -32t-92.5 -54q0 -1 24 -15q23 -14 51 -31
t51 -30l24 -14v0zM676 328l-143 87l1 -176zM490 607l-55 -90l55 -32v122v0zM361 385l107 65l-51 30l-56 -95v0zM662 387l-56 93l-53 -31l109 -62v0zM533 607q0 -3 0.5 -62t0.5 -61q12 7 31.5 19t21.5 15q-12 22 -32 55t-22 34v0z" />
    <glyph glyph-name="uniE909" unicode="&#xe909;" 
d="M486 923q5 -52 13 -101q8 -50 19.5 -98.5t24.5 -96.5q14 -47 30 -95q-21 -6 -42.5 -12t-43.5 -12q-13 26 -19.5 54.5t-16.5 56.5q-18 -34 -36 -67t-34 -66q-6 -13 -14 -21.5t-21 -13.5q-12 -5 -24.5 -11.5t-26.5 -14.5q24 63 47 124l48 124t48 125q23 62 48 125zM824 94
q-48 43 -83 95.5t-66 107.5q-10 18 -19 36.5t-18 37.5q-3 8 -8.5 11t-13.5 1q-17 -5 -33.5 -10t-33.5 -11q6 -10 10.5 -18.5t9.5 -17.5q34 -64 78 -121t101 -103q23 -18 48 -33t51 -26q19 -7 38.5 -12t39.5 -2q-28 12 -53 28.5t-48 36.5v0zM1009 509q-64 0 -127.5 0.5
t-127.5 -10.5q-32 -5 -64.5 -9.5t-64.5 -12.5q-44 -10 -87.5 -23t-86.5 -28q-50 -17 -97 -40t-92 -50q-38 -23 -74 -49.5t-69 -56.5q-19 -17 -37.5 -36t-36.5 -38q-10 -11 -19.5 -22.5t-18.5 -23.5q5 0 8 2l6 4q22 21 43.5 41.5t43.5 40.5q39 36 82.5 64t89.5 53
q66 36 136 65.5t143 48.5q47 12 94.5 22.5t95.5 21.5q20 4 41.5 6.5t42.5 5.5q29 3 58.5 7t59.5 7q15 2 30.5 3t34.5 3q-4 2 -5.5 3l-1.5 1v0zM104 257q34 27 69 51q35 23 72 44.5t75 40.5t78 36q62 26 126 47.5t131 35.5q54 10 108 19.5t109 9.5q5 0 11 2t12 3
q0 2 -0.5 3.5t-0.5 2.5q-44 -1 -88.5 -2.5t-88.5 -3.5h-1h-1q-27 -5 -53.5 -10.5t-52.5 -9.5q-38 -6 -75 -17t-74 -23q-58 -19 -112 -46.5t-105 -60.5q-50 -32 -95 -69.5t-83 -83.5q9 8 19 15.5t20 15.5v0zM614 425q-70 -17 -137.5 -41.5t-130.5 -59.5q-45 -24 -84 -50
q-40 -27 -70 -51t-48 -43q-19 -19 -23 -28q86 68 178 118q93 50 191.5 86t201.5 60t210 38q-74 0 -146 -6t-142 -23zM132 -12q30 60 60.5 120.5t62.5 122.5q-9 -5 -17 -9t-14 -9q-6 -6 -12.5 -12t-9.5 -13q-12 -29 -23 -59l-22 -60q-7 -20 -14.5 -39.5t-14.5 -39.5q1 0 2 -1
t2 -1v0z" />
    <glyph glyph-name="uniE90A" unicode="&#xe90a;" 
d="M512 956q-105 0 -198 -40q-92 -40 -161 -108.5t-109 -161.5q-40 -92 -40 -198q0 -105 40 -197q40 -93 109 -162t161 -109q93 -39 198 -39t197 39q93 40 162 109t109 162q40 92 40 197q0 106 -40 198q-40 93 -109 161.5t-161 108.5q-93 40 -198 40v0zM780 307
q-33 -23 -67 -47q-33 -24 -66.5 -47.5t-67.5 -47.5t-68 -49q-33 24 -67 48t-67.5 48t-67.5 48q-33 24 -67 48v96v96.5v96.5v96q55 33 126 49q71 17 145.5 16.5t144.5 -16.5t122 -48v-96v-97v-97v-97v0zM658 600v-123v-124q-15 -11 -31 -22t-34 -24v51v49h-81h-82v-47.5
v-47.5q0 -1 -1 -1.5t-2 -0.5q-15 11 -30.5 21.5t-30.5 21.5v124v123q73 22 145.5 22t146.5 -22v0zM592 551q-41 7 -81 7.5t-80 -7.5v-37.5v-35.5h81h80v36v37v0z" />
    <glyph glyph-name="uniE90B" unicode="&#xe90b;" 
d="M1009 243v-115.5t1 -115.5q1 -27 -16.5 -41.5t-47.5 -7.5q-25 6 -51.5 10t-52.5 8q-41 8 -81 2.5t-80 -14.5q-54 -13 -109 -17.5t-110 0.5q-69 6 -132 30.5t-119 66.5q-34 25 -62 55q-28 29 -51 62t-40 70q-17 36 -29 77q-18 64 -19 128t15 129q19 77 59.5 142t100.5 117
q52 44 112 72.5t128 39.5q57 9 112 7q54 -3 105.5 -17t98.5 -39q48 -26 93 -63q33 -28 60 -60t48 -68t35 -75q15 -40 23 -83q5 -25 6.5 -51.5t2.5 -53.5q1 -48 0.5 -97t-0.5 -98v0zM507 27q88 -2 166 31q77 33 135 90.5t91 133.5q34 77 34 163q1 89 -33 167
q-33 78 -90 135.5t-134 90.5q-77 34 -163 34q-89 0 -166 -33q-77 -32 -134.5 -88.5t-90.5 -131.5q-34 -75 -36 -158q-2 -93 32 -173t92 -138t135 -91t162 -32v0zM475 223q-7 1 -14 3t-15 4q-49 14 -86 47q-36 33 -56 76t-21 92q-2 48 19 94q22 49 60 82q39 32 85.5 45.5
t96.5 7.5q50 -7 94 -37q35 -24 58 -56.5t35 -73.5q5 -17 19 -24t30 -2q15 4 21.5 18t2.5 30q-12 43 -34.5 79t-54.5 66q-36 32 -80 51q-44 20 -91.5 25t-94.5 -4q-48 -10 -89 -34q-48 -29 -83 -70q-34 -41 -52 -89.5t-19 -101.5q0 -53 18 -104q21 -58 61 -101
q39 -44 90 -69.5t109 -31.5q58 -5 114 13q70 22 119 67t77 113q6 17 -0.5 31.5t-21.5 20.5q-15 5 -29.5 -2t-20.5 -24q-25 -64 -83.5 -103.5t-131.5 -39.5q-6 1 -14.5 1t-17.5 1v0zM442 351q19 -17 42 -20.5t47 1.5q21 4 35.5 17t17.5 36q4 20 -5 34.5t-24 25.5q-3 2 -5.5 4
t-6.5 4q4 3 7 4.5t5 3.5q12 10 19.5 23t4.5 30q-5 24 -20 37t-43 18q-17 3 -42.5 -7.5t-35.5 -28.5q7 -6 13.5 -12t12.5 -12q7 4 12 7.5t11 5.5q9 4 18 3t15 -9q4 -5 5.5 -12.5t0.5 -13.5q-1 -9 -9 -13.5t-17 -5.5q-8 0 -16 -1t-17 -1v-18.5v-17.5q12 -1 22.5 -2t20.5 -3
q12 -3 17.5 -11.5t4.5 -19.5q-1 -10 -9.5 -17t-19.5 -5q-11 1 -22.5 5t-24.5 8q-4 -4 -10 -10.5t-14 -15.5q3 -2 5 -5t5 -6v0z" />
    <glyph glyph-name="uniE90C" unicode="&#xe90c;" 
d="M513 189q-54 -17 -108 -35t-108 -35.5t-108 -34.5l-108 -36q-6 -2 -12 -3t-13 -2q-21 -2 -33 10t-9 34q4 30 8.5 60t9.5 60q5 31 9.5 62t8.5 62q7 47 14 93.5t14 93.5q10 62 19 123.5t18 123.5q2 12 4 24.5t4 25.5q2 10 6.5 18.5t14.5 12.5t18.5 -0.5t15.5 -11.5
q33 -34 66 -67t66 -67q49 -49 97.5 -98.5t97.5 -99.5q1 -1 3 -2.5t5 -4.5l7.5 7.5t7.5 6.5q39 39 77 78q39 40 77.5 79t77.5 78t77 78l10 10t11 9q13 9 24 5.5t17 -18.5q2 -5 3.5 -11t2.5 -12q9 -55 17.5 -111t16.5 -112q7 -47 13.5 -94t13.5 -94q9 -59 18.5 -118t18.5 -119
q3 -18 5.5 -36.5t3.5 -37.5q1 -22 -11 -33t-34 -6q-24 5 -47 13t-46 15q-46 15 -91 29q-45 15 -90 29.5t-90 29.5t-90 29v0zM184 722l-22 -148t-22 -147t-22 -147q-10 -73 -21 -147q74 24 146 47.5t145 47.5q-14 6 -27 10.5t-24 11.5q-13 7 -16.5 19.5t3.5 25.5q2 6 6 11.5
t8 9.5l27.5 27.5t26.5 27.5l34 34l35 35q-35 35 -69 70t-68.5 70.5t-69.5 70.5q-35 36 -70 71v0zM566 441q5 -6 9.5 -10.5l8.5 -8.5q26 -27 52.5 -53.5t52.5 -53.5q23 -24 17.5 -44t-36.5 -31q-7 -2 -15 -5t-18 -6q75 -25 147 -48.5t146 -47.5l-22 148q-11 73 -22 146.5
t-22 147.5q-11 73 -22 147q-35 -35 -69 -71q-35 -35 -69 -70t-69 -70q-34 -35 -69 -70v0zM425 298q22 -8 41.5 -14.5t38.5 -12.5q3 -1 6.5 -1t6.5 1q20 6 40.5 12.5t42.5 13.5q-24 22 -46.5 42.5t-42.5 39.5q-20 -19 -41.5 -39t-45.5 -42v0z" />
    <glyph glyph-name="uniE90D" unicode="&#xe90d;" 
d="M1017 449q1 -103 -38 -196q-39 -92 -108 -161t-162 -109q-92 -40 -199 -39q-104 0 -196 40t-160 109t-108 161q-39 93 -39 198q0 102 41 195q40 93 110.5 162.5t166.5 109.5q96 39 207 35q98 -3 186 -43t154.5 -107.5t106.5 -158.5q39 -91 38 -196v0zM512 -11
q95 0 179 36t146.5 98.5t99.5 147.5q36 84 35 182q0 93 -36 176t-98.5 145.5t-146.5 98.5q-83 36 -179 36q-95 0 -178 -36q-84 -36 -146.5 -98t-98.5 -145t-36 -177q-1 -98 35 -182q36 -85 99 -147.5t147 -98.5q83 -36 178 -36v0zM513 18q-88 -1 -168 33q-80 35 -140 95.5
t-94 143.5q-34 84 -30 181q4 81 38 155t91 130.5t135 90.5q77 34 168 34q87 0 166 -34q80 -34 140 -94t94 -143q34 -82 31 -179q-3 -83 -37 -158t-92 -131.5t-135 -90.5q-77 -33 -167 -33v0zM634 573q-3 22 -16.5 36.5t-32.5 24.5q7 12 13 23.5t13 21.5q9 14 14.5 28t1.5 31
q-4 16 -17.5 29t-31.5 15q-18 3 -33 -4t-25 -23q-16 -26 -31.5 -52.5t-30.5 -53.5q-12 -19 -23.5 -38.5t-22.5 -39.5q-3 5 -5.5 9.5t-4.5 7.5q-9 12 -19.5 21.5t-26.5 10.5q-23 0 -37.5 -12t-25.5 -28q-3 -3 -2.5 -8.5t1.5 -9.5q3 -17 8 -34t7 -34q6 -34 4 -67.5t-7 -66.5
q-3 -20 -6.5 -39.5t-6.5 -39.5q-2 -12 0.5 -18t13.5 -12q20 -11 40.5 -22t41.5 -23v-0.5v-0.5q-4 -7 -8 -13.5t-7 -12.5q-5 -9 -3.5 -16.5t9.5 -12.5q7 -4 14.5 -1.5t12.5 10.5q5 7 9 14l8 14q10 -6 20 -11.5t20 -10.5q-8 -14 -15.5 -26.5t-15.5 -26.5q-5 -10 -0.5 -19.5
t15.5 -10.5q7 0 12 3.5t8 9.5q8 12 15.5 25t14.5 25q8 -2 14 0.5t12 7.5q17 15 34 30.5t34 30.5q19 18 37 35.5t32 39.5q17 28 34 56.5t33 57.5q9 15 9.5 30.5t-6.5 30.5q-5 13 -14 21t-21 15q-1 29 -17.5 45.5t-42.5 27.5v0zM415 251q13 23 26 45.5t27 45.5q30 51 60 102.5
t61 103.5q9 15 3 30t-28 20q-8 -13 -16.5 -27t-16.5 -28q-4 -6 -11 -7.5t-13 0.5q-6 3 -9.5 9.5t-1.5 12.5q1 3 2.5 6l2.5 5q16 28 32.5 55.5t32.5 55.5q6 10 12.5 21t11.5 20q-1 10 -5 15.5t-12 6.5t-13 -2.5t-9 -9.5l-28 -48l-28 -48l-34 -58l-34 -58q-4 -6 -9.5 -10
t-13.5 -3t-11 6.5t-6 11.5q-3 8 -6 17t-7 17q-4 7 -8.5 14.5t-15.5 9.5q-4 -3 -8.5 -6.5t-7.5 -5.5q4 -22 7.5 -42t5.5 -40q5 -40 1.5 -79.5t-9.5 -78.5q-1 -12 -3 -24.5t-4 -23.5q19 -11 37.5 -21.5t37.5 -20.5q3 3 4.5 6t3.5 5v0zM487 206q15 25 29.5 50t29.5 50
q25 44 50.5 87t51.5 86q7 13 7 23.5t-10 19.5q-4 3 -9 6l-10 6l-46 -78q-23 -40 -46 -79l-46 -78l-46 -78q10 -6 19.5 -11t19.5 -11q2 2 3.5 4t2.5 3v0zM638 330q13 23 26.5 45t26.5 45q7 12 4.5 23t-13.5 17q-34 -57 -68 -115t-68 -115q26 22 51 45.5t41 54.5v0z" />
    <glyph glyph-name="uniE90E" unicode="&#xe90e;" 
d="M199 -32q2 14 4 27.5t5 26.5q7 42 14.5 84.5t14.5 84.5l10 60t9 61q1 3 -0.5 7t-3.5 6q-38 38 -76.5 76t-76.5 76q-23 22 -44.5 45t-43.5 46q14 2 30 4t32 5q49 7 98 14.5t98 14.5q19 3 38.5 5.5t38.5 5.5q3 1 6.5 3t5.5 5q23 47 46.5 94.5t46.5 95.5q15 30 30 61t31 64
q11 -21 20.5 -40t18.5 -38q29 -59 57.5 -118t57.5 -117q2 -3 6 -6t7 -3q26 -4 52.5 -8t52.5 -8q32 -4 64.5 -8t64.5 -9q26 -4 51.5 -8.5t50.5 -8.5q-10 -11 -20 -21.5t-21 -21.5q-48 -48 -96 -95.5t-97 -93.5q-12 -12 -12 -23.5t2 -24.5q8 -45 16 -90.5t15 -91.5
q6 -33 11.5 -66t10.5 -66q1 -1 0.5 -2.5t-0.5 -4.5q-15 8 -29 15t-28 15q-62 33 -123.5 66t-123.5 66q-4 1 -9 1t-8 -2q-38 -20 -75 -40q-38 -20 -75 -40t-75 -40q-37 -20 -75 -40h-1h-3v0z" />
    <glyph glyph-name="uniE90F" unicode="&#xe90f;" 
d="M512 22h-83h-82h-83h-82q-17 0 -30.5 7t-22.5 22l-50 88t-51 88q-8 14 -7.5 28.5t8.5 28.5q23 40 46 79l46 80l46 80t46 79q38 65 75.5 130.5t74.5 130.5q9 14 21 21.5t29 7.5q50 -1 100 -1h99q17 0 29.5 -7t20.5 -21q37 -64 74 -127.5t74 -127.5q23 -39 45 -78
q23 -39 45.5 -78.5t45.5 -78.5l46 -78q12 -21 12 -41t-13 -40q-23 -40 -46.5 -80t-46.5 -81q-9 -16 -22.5 -23.5t-31.5 -7.5h-83h-83.5h-82.5h-83v0zM280 256h117h116h116h116q-29 51 -58 101l-58 100t-58 101q-29 50 -58 101l-58 -102q-30 -50 -59 -100.5t-58 -100.5z" />
    <glyph glyph-name="uniE910" unicode="&#xe910;" 
d="M439 247q-21 -2 -43.5 16t-21.5 48q0 28 18 46.5t49 18.5q24 0 43.5 -19.5t18.5 -43.5q0 -29 -18.5 -47.5t-45.5 -18.5v0zM734 445q0 28 -17 46t-46 20q-26 1 -44 -16t-21 -41q-4 -29 14.5 -50.5t47.5 -22.5q26 -1 46 18t20 46v0zM438 644q-20 0 -42 -16.5t-23 -47.5
q0 -26 18 -45.5t48 -19.5q27 -1 45 18t18 47q2 25 -18.5 44.5t-45.5 19.5v0zM362 380q27 1 45 18.5t19 46.5q1 26 -18.5 45.5t-45.5 19.5q-27 0 -45.5 -18.5t-18.5 -45.5q-2 -28 18 -47.5t46 -18.5v0zM528 579q1 -28 17 -45t45 -19q31 -1 48.5 19.5t18.5 44.5q0 23 -19 45
t-46 19q-24 3 -44.5 -17t-19.5 -47zM592 376q-29 -1 -46 -18t-18 -46q0 -29 20.5 -47t45.5 -18q24 0 44.5 20t17.5 44q3 24 -15.5 45t-48.5 20v0zM288 615q-16 1 -26.5 -9t-11.5 -26q0 -18 9.5 -29t26.5 -11q16 -1 26 9.5t11 26.5q0 16 -10 27.5t-25 11.5v0zM706 578
q0 -15 11 -25.5t26 -10.5q16 -1 27.5 10t11.5 26q-1 16 -12 26.5t-27 10.5q-15 0 -26 -11t-11 -26v0zM477 709q-1 -14 11 -25t27 -11t26 11t11 25q0 17 -10.5 27.5t-25.5 10.5q-20 0 -29 -11t-10 -27v0zM745 351q-15 0 -26.5 -10.5t-12.5 -26.5q-1 -14 10.5 -25.5
t27.5 -12.5q14 -1 25.5 10.5t12.5 27.5q0 14 -11 25.5t-26 11.5v0zM288 275q14 1 26 12t11 25q-2 16 -10 26.5t-27 10.5q-17 1 -27.5 -9t-10.5 -26q0 -18 10.5 -28.5t27.5 -10.5v0zM551 181q0 16 -11 26.5t-27 10.5q-16 -1 -26.5 -11.5t-10.5 -25.5q0 -17 10.5 -27t26.5 -10
t27 10.5t11 26.5v0zM859 478q-13 0 -23 -9t-10 -21q-1 -13 8.5 -23.5t22.5 -10.5q11 0 21.5 8t10.5 23q0 13 -9 23t-21 10v0zM313 739q1 -12 10 -20.5t22 -7.5q13 0 21.5 9.5t7.5 23.5q0 13 -9.5 22.5t-21.5 8.5q-14 0 -22.5 -10t-7.5 -26v0zM173 477q-12 0 -22 -10t-10 -22
q-1 -12 9 -22t22 -10q13 0 22 8.5t9 21.5q0 15 -8 24.5t-22 9.5v0zM313 149q0 -14 9 -23.5t22 -10.5q14 0 23 10t9 23t-8.5 22t-21.5 9q-14 0 -23.5 -8.5t-9.5 -21.5zM687 180q-13 -1 -22 -10t-9 -22t10 -22.5t22 -9.5q11 -1 21 9.5t10 22.5q0 13 -9.5 22.5t-22.5 9.5v0z
M685 712q13 0 23 9t10 22q1 11 -9 21.5t-22 10.5q-13 1 -22 -7.5t-9 -23.5q0 -14 7.5 -22.5t21.5 -9.5v0zM515 842q10 0 17.5 7.5t7.5 18.5q-1 12 -7.5 19.5t-17.5 7.5t-18.5 -7.5t-7.5 -19.5q0 -11 7.5 -18.5t18.5 -7.5zM149 207q11 -1 19.5 7.5t8.5 18.5t-8 18t-18 9
q-9 0 -17.5 -8t-8.5 -18t7.5 -18.5t16.5 -8.5v0zM513 49q-9 0 -17 -8.5t-9 -18.5q0 -10 8 -18t18 -8t18.5 8t8.5 19q-1 10 -9 18t-18 8v0zM907 658q0 10 -8.5 18t-18.5 8q-9 0 -17.5 -8.5t-8.5 -17.5q0 -10 8.5 -18.5t17.5 -8.5q10 0 18.5 9t8.5 18v0zM907 236q0 10 -7.5 17
t-18.5 7t-18.5 -7.5t-7.5 -17.5q1 -11 8.5 -18t17.5 -7q12 0 19 7t7 19v0zM125 656q-1 -11 6 -18t19 -7q11 0 18 7t7 18q0 12 -7 18.5t-18 6.5q-12 0 -18.5 -7t-6.5 -18v0zM727 849q0 -10 5.5 -14.5t13.5 -5.5q9 0 14.5 4.5t5.5 14.5q1 9 -4.5 15t-14.5 7q-8 0 -14 -6
t-6 -15zM31 445q-1 -7 6 -14.5t14 -6.5q9 1 14.5 6t5.5 14q1 8 -5.5 14t-14.5 6t-14 -5.5t-6 -13.5v0zM728 42q0 -7 7 -13.5t14 -6.5t13.5 7t6.5 14q-1 9 -5.5 13.5t-11.5 5.5q-11 0 -17 -5.5t-7 -14.5v0zM283 869q-8 2 -14 -5t-6 -15q0 -9 4.5 -14t12.5 -6q10 -1 16 5t6 17
q0 8 -5.5 12.5t-13.5 5.5zM1000 446q-1 9 -5.5 14.5t-13.5 6.5t-14.5 -5t-6.5 -16q0 -10 5.5 -14t12.5 -5q9 -1 15.5 5t6.5 14v0zM286 62q-7 1 -15 -6t-8 -14q1 -8 6 -14t14 -6q8 -1 13.5 3t7.5 11q1 11 -4.5 18t-13.5 8v0z" />
    <glyph glyph-name="uniE911" unicode="&#xe911;" 
d="M12 342q6 0 10 0.5t8 0.5h88.5h88.5q9 0 14.5 -3t9.5 -12q35 -73 92 -118.5t137 -57.5q52 -8 99 0q48 9 88 30.5t72 55.5q33 34 54 76q7 16 16.5 23t28.5 6q44 -1 89 -0.5t89 -0.5h8h10v-27v-27q-2 -73 -4 -147t-5 -147q0 -28 -12.5 -38.5t-39.5 -10.5h-46.5h-47.5
q-20 0 -32 11.5t-13 31.5q-2 20 -2 39.5v38.5q0 3 -2 6.5t-3 7.5q-3 -2 -6.5 -3.5t-5.5 -4.5q-37 -45 -85.5 -71.5t-102.5 -40.5q-57 -15 -111 -16q-54 0 -105.5 12t-99.5 36q-49 24 -95 59q-36 27 -66 59q-29 32 -51.5 68.5t-38.5 77.5q-17 41 -28 86v0zM490 955
q-103 -4 -186 -43q-84 -38 -144.5 -95.5t-97.5 -126.5t-47 -134h99.5h99.5q4 0 8.5 4t6.5 8q16 32 36.5 60.5t48.5 51.5q67 55 141 68t153 -15q61 -22 104.5 -64t70.5 -101q2 -4 6.5 -8t8.5 -4h98.5h100.5q-17 83 -62 157q-46 75 -112.5 129.5t-151.5 85.5t-181 27v0z" />
    <glyph glyph-name="uniE912" unicode="&#xe912;" 
d="M513 956q104 0 196 -40q93 -39 162 -108.5t108 -163.5q40 -93 38 -201q-1 -101 -41 -192q-39 -90 -107.5 -158t-159.5 -107q-92 -40 -199 -40q-103 1 -195 40q-92 40 -161 109.5t-109 164.5q-40 94 -37 204q2 100 41 189q40 90 107.5 157t159.5 106q91 40 197 40v0z
M54 452q-1 -96 35 -179t97.5 -145t142.5 -98t172 -38q101 -2 186 34t147 97t98 142q36 80 39 168q2 50 -6 96q-7 47 -24 90t-43 83q-26 39 -62 74q-33 33 -69 58q-37 25 -77 41.5t-84 25.5q-43 9 -90 9q-96 1 -180 -35q-85 -36 -147.5 -98.5t-99.5 -146.5q-36 -84 -35 -178
v0zM943 452q1 -89 -33 -168t-94 -138.5t-142 -93.5t-176 -32q-69 3 -131.5 25t-116.5 65q-44 35 -76 75q-33 40 -54 85.5t-31 95.5q-9 51 -7 107q3 82 37 156q35 74 92.5 130.5t135.5 89.5q77 34 168 33q88 0 166 -34t136.5 -92.5t92.5 -136.5t33 -167v0zM739 452
q0 6 -3 11.5t-8 8.5l-32 18t-32 19q-23 13 -46 26.5t-46 26.5q-20 11 -39.5 22.5t-38.5 22.5q-22 12 -43.5 24.5t-42.5 24.5q-12 7 -24 0t-12 -22v-91v-92v-92v-92q0 -6 3.5 -11.5t8.5 -9.5q6 -3 12.5 -3t12.5 4q21 11 41.5 23t41.5 24l58 34t59 34q29 17 58.5 34t59.5 34
q6 4 9.5 9t2.5 13v0zM681 113q-1 -11 7 -19.5t20 -8.5q11 0 19 8t8 20q0 11 -8 19t-18 8q-12 0 -20 -7.5t-8 -19.5v0zM344 113q1 11 -7.5 19t-19.5 8t-19 -8t-8 -18q0 -13 8 -21t19 -8q12 0 20 8.5t7 19.5zM263 125q11 -1 18.5 8.5t7.5 18.5q0 12 -8.5 19.5t-21.5 7.5
q-10 0 -18 -8.5t-7 -18.5q0 -12 8 -20t21 -7v0zM213 173q11 0 19.5 8t8.5 19t-8 19t-19 8q-11 1 -19.5 -7t-8.5 -20q-1 -12 7.5 -19.5t19.5 -7.5v0zM472 836q0 12 -8 20t-19 8q-12 0 -20 -8t-8 -20q1 -13 8.5 -20t19.5 -7q11 0 19 7.5t8 19.5v0zM406 818q1 12 -7.5 20
t-19.5 8t-19 -8t-8 -19q-1 -13 7.5 -20.5t19.5 -7.5q12 0 19.5 8t7.5 19v0zM784 702q0 -11 8.5 -19t19.5 -8q12 1 19.5 8t7.5 20q0 11 -7.5 19t-19.5 8q-11 0 -19.5 -8.5t-8.5 -19.5v0zM485 60q0 -11 8.5 -19t19.5 -8t19 8t8 19q0 14 -8.5 21t-19.5 7q-10 0 -18.5 -7
t-8.5 -21v0zM811 173q13 -1 20.5 7.5t7.5 19.5q1 12 -7.5 19.5t-20.5 7.5q-9 1 -18 -7t-9 -20q0 -11 8.5 -19t18.5 -8v0zM201 256q1 11 -7.5 19t-19.5 8t-19 -8t-8 -18q0 -12 7.5 -20.5t19.5 -8.5t20 9t7 19v0zM674 819q0 11 -8 19t-19 8q-12 0 -20 -8t-8 -19q0 -12 8 -20
t19 -8t19.5 7.5t8.5 20.5v0zM553 836q0 -11 7.5 -19t19.5 -8q10 0 18.5 6.5t9.5 20.5q0 12 -8 20t-20 8q-11 0 -19 -8t-8 -20v0zM708 817q-11 0 -19 -7.5t-8 -18.5q-1 -11 7.5 -20t19.5 -9q12 1 19.5 9t7.5 20q0 10 -8 18.5t-19 7.5v0zM764 125q12 0 19.5 8t7.5 19t-8 19
t-19 8q-12 0 -20 -8t-8 -19q0 -12 9 -20t19 -7v0zM101 384q-2 -12 7 -20t20 -8t19 8t8 19t-8 19.5t-19 8.5q-12 0 -19.5 -8t-7.5 -19v0zM145 612q-11 0 -18.5 -7.5t-8.5 -18.5q-1 -13 8 -20.5t19 -7.5q11 0 19.5 7.5t8.5 18.5t-8 20t-20 8v0zM241 702q0 11 -8 19.5t-19 8.5
q-12 0 -20 -7.5t-8 -19.5q-1 -12 6.5 -20t20.5 -8q12 0 19.5 8t8.5 19v0zM127 546q-11 1 -18.5 -8t-8.5 -18q0 -12 8.5 -20t18.5 -8q12 0 20 8t8 19t-8 19.5t-20 7.5v0zM907 585q1 11 -8 19t-19 8q-12 0 -20 -8.5t-8 -17.5q0 -12 8 -20t20 -8q10 0 19 7.5t8 19.5v0zM924 383
q1 9 -6 18.5t-21 9.5q-10 0 -18.5 -8.5t-8.5 -19.5t8 -19t19 -8t19 8t8 19v0zM118 318q-1 -13 8.5 -20.5t18.5 -7.5q12 0 20 8.5t8 19.5t-8.5 19t-19.5 8q-12 0 -20 -8.5t-7 -18.5zM824 256q-1 -11 7 -19.5t20 -8.5t19.5 8.5t7.5 19.5t-8 19t-19 8t-19.5 -8t-7.5 -19v0z
M317 817q-11 1 -19 -7.5t-8 -17.5q-1 -13 8 -21.5t19 -8.5q11 1 19 8.5t8 18.5q1 12 -8 20.5t-19 7.5v0zM513 869q-12 2 -20 -7.5t-8 -18.5q1 -12 8.5 -20t18.5 -8q12 0 20 8t8 19q0 12 -8 19.5t-19 7.5v0zM898 546q-12 1 -20 -7.5t-8 -19.5t8 -19t19 -8t19.5 8t8.5 20
q0 9 -8 18t-19 8v0zM907 317q1 10 -7 19t-20 9q-11 0 -19.5 -8t-8.5 -19t8.5 -19.5t19.5 -8.5q10 0 19 8t8 19v0zM646 57q10 -1 19 7.5t9 18.5q-1 12 -8.5 20t-19.5 8q-11 0 -19 -7.5t-8 -18.5q0 -12 7.5 -20t19.5 -8zM851 674q-12 0 -19.5 -8t-7.5 -20q0 -11 8 -19t19 -8
t19 8.5t8 19.5t-7.5 19t-19.5 8v0zM201 647q1 11 -8 19t-19 8q-12 -1 -19.5 -8.5t-7.5 -19.5q0 -11 8 -19t19 -8t19.5 8t7.5 20v0zM876 451q-1 -12 8.5 -19.5t18.5 -7.5q11 0 19.5 8t8.5 19q0 12 -8 19.5t-19 8.5q-12 0 -20 -8t-8 -20v0zM378 57q12 0 20 7.5t8 18.5
q0 13 -7.5 20.5t-19.5 7.5t-19.5 -8t-7.5 -19q0 -12 7.5 -19.5t18.5 -7.5v0zM261 724q11 -1 19.5 7t8.5 19q0 12 -8 20t-19 8q-12 0 -19.5 -7.5t-8.5 -18.5q0 -12 8 -20.5t19 -7.5v0zM791 751q0 12 -8 19.5t-19 7.5q-12 0 -20 -8t-8 -19q0 -12 8 -19.5t20 -7.5t19.5 7.5
t7.5 19.5v0zM122 478q-12 1 -19.5 -7t-8.5 -18q0 -12 8 -20.5t19 -8.5q10 0 18.5 7.5t9.5 17.5q1 13 -7.5 21.5t-19.5 7.5v0zM472 66q0 12 -7.5 19.5t-18.5 8.5q-12 0 -20.5 -9t-8.5 -19t8.5 -18.5t17.5 -8.5q13 0 21 7.5t8 19.5v0zM553 67q0 -12 8 -20t19 -8q10 -1 19 7.5
t9 19.5q-1 11 -8.5 19t-17.5 9q-12 0 -21 -8.5t-8 -18.5v0z" />
    <glyph glyph-name="uniE913" unicode="&#xe913;" 
d="M307 382q-55 1 -104 13.5t-91 42.5q-45 31 -78.5 92t-15.5 128q15 53 50.5 87t87.5 49q42 12 88 10t90.5 -18.5t82.5 -47.5q39 -32 65 -80q12 -22 25 -44t25 -43q34 13 67 26.5t66 26.5q42 15 90 12q49 -4 94.5 -22.5t83.5 -50.5t58 -73q35 -70 15 -140.5t-97 -109.5
q-78 -40 -152 -25.5t-143 60.5q-5 4 -10.5 8.5t-12.5 9.5q-2 -5 -3 -8.5t-2 -7.5t-1.5 -8t-1.5 -11q-72 24 -143.5 48t-144.5 48q4 8 6.5 14t5.5 14v0zM567 489q17 -29 32.5 -57.5t31.5 -56.5q34 -58 100.5 -75t111.5 1q46 18 67.5 60t6.5 85q-23 62 -76 88.5t-108 21.5
q-44 -4 -84.5 -24t-81.5 -43v0zM458 530q-14 24 -27.5 47t-25.5 47q-30 56 -77 80t-110 21q-41 -3 -74.5 -33.5t-37.5 -68.5q-9 -84 58 -125t129 -36q44 4 84 24.5t81 43.5v0zM470 441q-18 -8 -35.5 -16.5t-37.5 -17.5q37 -12 72.5 -23.5t72.5 -24.5q-11 20 -20 37t-18 33
q-8 3 -16.5 6t-17.5 6v0zM699 766q0 42 -31 72.5t-74 30.5q-40 0 -69 -30.5t-29 -71.5q0 -45 28.5 -74t71.5 -29q37 -3 70 27t33 75zM278 302v-43.5v-40.5q60 -20 119.5 -39.5t119.5 -39.5q12 17 23.5 33t24.5 35q-73 24 -143.5 47.5t-143.5 47.5zM294 148q14 -26 28 -53
t29 -56q29 14 56 27.5l53 26.5v3.5v3.5q-40 13 -80 26.5t-80 26.5q-2 -1 -3.5 -2t-2.5 -3v0z" />
    <glyph glyph-name="uniE914" unicode="&#xe914;" 
d="M512 952q106 0 199 -41t161.5 -111.5t106.5 -164.5q39 -95 36 -203q-3 -100 -43 -188q-40 -89 -107.5 -155t-158.5 -104t-196 -38q-104 1 -195 40q-92 39 -159.5 107t-106.5 159q-39 92 -39 196t40 196q39 91 107 159.5t159 107.5q92 40 196 40v0zM809 251l-74 138
q-38 69 -75 137.5t-74 136.5q-37 69 -75 138l-74 -138t-74 -137.5t-74 -136.5l-74 -138h149h148.5h148.5h148zM532 915l-1.5 -1.5l-1.5 -1.5q47 -88 95 -176t95.5 -176t95.5 -176q48 -89 96 -177q33 59 50 118q17 60 18.5 118.5t-13.5 117.5t-48 117q-32 56 -72 98
t-88.5 71.5t-105.5 46.5q-56 17 -120 21v0zM494 913q-52 0 -109 -16q-56 -15 -110.5 -47t-101.5 -82q-48 -49 -81 -118q-29 -59 -39 -120t-5 -119t23 -110t44 -91q48 88 95 175q47 88 94.5 176t94.5 176t95 176v0zM137 179q0 -1 -0.5 -2t-0.5 -2q39 -50 84 -87
q45 -38 96.5 -62t109.5 -34t122 -6q53 4 101 18t91 38.5t81 58.5t71 78h-190h-189h-188h-188v0z" />
    <glyph glyph-name="uniE915" unicode="&#xe915;" 
d="M788 624v95.5v95.5h109.5h110.5v-8v-8v-116q1 -57 1 -115v-116q0 -57 -1 -115q0 -48 -12 -90t-34.5 -77t-55.5 -63q-33 -29 -76 -50q-38 -19 -80 -23t-84 1q-48 5 -85 22t-69 43q-33 -27 -70.5 -43.5t-80.5 -21.5q-80 -10 -148 14.5t-123 84.5q-33 36 -52 80t-22 94
q-4 59 10.5 111.5t51.5 98.5q36 44 81.5 72t102.5 37q55 10 107 3t100 -35q9 -5 17.5 -10.5t16.5 -11.5q5 -5 8.5 -4.5t8.5 4.5q34 25 71.5 39t79.5 19q29 3 58 1t59 -8v0zM400 332q3 36 -22 60t-51 26q-44 4 -67.5 -24t-24.5 -60t21.5 -59t51.5 -27q42 -1 66.5 21.5
t25.5 62.5v0zM623 334q0 -35 21.5 -60t51.5 -27q42 -3 66 23t25 59q1 35 -19.5 60.5t-56.5 28.5q-39 4 -65 -24t-23 -60v0z" />
    <glyph glyph-name="uniE916" unicode="&#xe916;" 
d="M969 452v-88.5v-88.5q0 -23 -6.5 -44t-19.5 -40q-7 -11 -16 -20t-20 -16q-10 -7 -21 -13.5t-22 -13.5q-15 -8 -29.5 -17t-29.5 -17q-21 -13 -42.5 -25t-43.5 -25q-14 -8 -29 -16.5t-29 -17.5q-15 -8 -30 -16.5t-30 -17.5q-11 -6 -22.5 -11.5t-24.5 -8.5q-26 -7 -50.5 -4
t-48.5 15q-10 5 -20 10.5t-20 11.5q-8 4 -16 8.5t-16 9.5q-9 5 -18 10.5t-18 10.5q-8 4 -15.5 8.5t-15.5 8.5l-24 14l-24 14q-7 5 -15 9.5t-16 8.5q-9 5 -18 10.5t-18 10.5q-8 5 -16 9.5t-16 9.5l-22 12t-21 14q-26 19 -41 45t-18 58q-1 7 -1 13v12v86v84.5v85.5v85
q0 43 18.5 75.5t55.5 54.5q38 21 75 43q38 22 75.5 43.5t75.5 43.5q37 21 75 43q20 12 42 17.5t46 4.5q16 -2 31 -6.5t29 -11.5q38 -23 77 -45q38 -22 77 -44.5t77 -44.5q39 -22 77 -45q31 -17 48.5 -44t22.5 -62q1 -5 1 -10v-11v-87v-88v0v0v0zM937 449v0v0v89.5v88.5
q0 34 -14.5 59t-42.5 42l-76 44l-76 44l-76 44q-38 21 -76 43q-29 17 -58.5 17t-57.5 -17q-39 -22 -77 -44l-76 -44t-77 -44l-76 -44q-28 -16 -42 -41t-14 -58v-87v-88v-88v-88q0 -33 14.5 -58t42.5 -42q10 -6 20 -11.5t20 -11.5q66 -38 132.5 -76.5t133.5 -76.5
q28 -17 56.5 -17t57.5 17q38 22 76 43l76 44l76 44t76 45q29 16 43.5 41t14.5 59v86v86v0zM914 453v-76v-76q0 -24 -7.5 -45.5t-22.5 -40.5q-8 -8 -16.5 -15.5t-18.5 -13.5q-66 -38 -132.5 -76.5t-133.5 -76.5q-32 -19 -65 -19t-65 19q-67 38 -134 76.5t-134 77.5
q-31 19 -47 46.5t-16 63.5q-1 78 -1 155.5t1 154.5q0 36 15.5 63.5t46.5 45.5q42 26 85.5 50.5t86.5 49.5l48 28t48 27q32 19 65 19t66 -18q66 -38 132 -76.5t133 -76.5q26 -16 42 -38.5t22 -52.5q1 -6 1.5 -12.5t0.5 -13.5v-74.5v-74.5v0v0v0zM667 619q-6 -5 -12 -11
t-12 -11q6 -7 12 -13l11 -11q6 6 12.5 11.5t12.5 11.5l-12 12t-12 11v0zM742 694q-6 -6 -12.5 -12t-11.5 -11q6 -6 11.5 -12.5t12.5 -12.5l12 12t11 12l-12 12t-11 12v0zM654 260l-12 12t-12 11q-6 -6 -12 -11.5t-12 -11.5q6 -6 11.5 -12t11.5 -12q6 6 12.5 12t12.5 12v0z
M666 199q6 6 12.5 12t12.5 12q-6 6 -12.5 11.5t-12.5 12.5q-6 -6 -11.5 -12t-11.5 -12l12 -12t11 -12v0zM295 247q-7 -7 -13 -12.5t-11 -10.5q6 -6 11.5 -12.5t10.5 -11.5q7 6 13 11.5t12 11.5l-12 12t-11 12v0zM331 236l12 12l12 12l-12 12l-11 11q-6 -5 -12.5 -11
t-12.5 -12l12 -12l12 -12v0zM717 298q6 -7 12 -12.5t11 -10.5q7 5 13 11t12 11l-12 12t-11 12q-7 -6 -13 -11.5t-12 -11.5v0zM729 633q-7 6 -13 12.5t-12 12.5q-6 -7 -12 -12.5t-12 -11.5q6 -6 12.5 -12t12.5 -13q6 6 11.5 12t12.5 12v0zM703 311q7 6 13 12l11 11
q-6 6 -11.5 12t-10.5 12q-6 -6 -12.5 -12t-11.5 -11q5 -6 11 -12t11 -12v0zM556 359l-13 -13l-11 -11q6 -6 11.5 -12t11.5 -12l12 12l12 12l-12 12t-11 12v0zM368 275q6 5 12 10.5t12 11.5l-12 12t-11 12q-6 -6 -12.5 -11.5t-12.5 -11.5q7 -6 13 -12zM392 671q-6 6 -11.5 12
t-10.5 11q-7 -6 -13 -12l-12 -12l11.5 -11.5l11.5 -11.5l12 12l12 12v0zM420 597q6 -6 11.5 -12.5t10.5 -11.5q7 6 13 11.5t12 11.5l-12 12l-12 12q-6 -6 -11.5 -12t-11.5 -11v0zM666 647q7 6 13 11.5t12 11.5q-7 6 -13 12l-12 12l-11.5 -11.5l-11.5 -11.5l12 -12t11 -12v0z
M628 386q7 6 13 12t12 11l-12 12l-12 12q-6 -6 -11.5 -12t-11.5 -12q6 -6 11.5 -12t10.5 -11v0zM407 283q-7 -6 -13 -11.5t-12 -11.5l12 -12t11 -12q7 6 13 12l12 12l-12 12l-11 11v0zM295 619q-7 -6 -13 -11.5t-11 -11.5q6 -6 11.5 -12t10.5 -11q6 6 12.5 11.5t12.5 11.5
l-12 12l-11 11v0zM332 657q-7 -6 -13 -12l-12 -12l12 -12l12 -12q6 6 12 12.5t12 12.5q-6 6 -11.5 12t-11.5 11v0zM354 334q-5 7 -11 13l-11 11q-7 -6 -13 -11.5t-11 -10.5q6 -7 11.5 -13t11.5 -12l12 12l11 11v0zM294 321l-12 -12l-11 -11l12 -12t12 -13q6 6 11.5 12
t12.5 13q-7 6 -13 11.5t-12 11.5zM421 297l11 -11t12 -13q6 6 11.5 12t11.5 12l-12 12l-12 12q-6 -6 -11.5 -12t-10.5 -12zM345 223q6 -5 12 -11t13 -12q5 5 10.5 11t12.5 12l-12 12t-13 12q-6 -6 -11.5 -12t-11.5 -12v0zM369 545l-12 -12t-12 -11l12 -12t11 -12
q6 6 12 11.5t13 11.5q-7 6 -13 12t-11 12v0zM717 596l12 -12l12 -12q6 7 12 13l11 11q-5 6 -11 12t-11 12q-7 -6 -13 -12l-12 -12v0zM717 224l13 -13t11 -12l12 12t12 11q-6 7 -12 13t-11 12q-7 -6 -13 -12t-12 -11v0zM568 297q6 -6 12 -11.5t12 -11.5q6 6 12 11.5t12 11.5
l-12 12l-12 12l-12 -12l-12 -12v0zM680 260l12 -12l12 -12l12 12t13 12l-13 13t-12 11l-12 -12l-12 -12v0zM518 396l-12 -12l-12 -12l12 -12l12 -12l12 12l12 12l-12 12l-12 12v0zM692 298q-4 3 -7 6l-6 6l-6 6l-6 6q-7 -6 -13 -12l-12 -12q6 -7 12.5 -13t12.5 -11
q6 5 12 11l13 13v0zM368 620l-12 -12l-12 -12q7 -6 12.5 -12t10.5 -11q7 6 13 11.5t12 11.5l-12 12l-12 12v0zM542 594q-7 5 -13 11t-12 11q-5 -5 -11 -10.5t-12 -11.5l12 -12t11 -12l12 12t13 12v0zM482 358q-7 -6 -13 -12t-12 -11l12 -12t12 -13q6 7 12 13l12 12
q-7 6 -12.5 12t-10.5 11zM592 572l12 12t12 11l-12.5 12.5l-10.5 10.5q-6 -6 -12 -11.5t-12 -11.5q6 -5 11.5 -11t11.5 -12v0zM443 424q6 6 12 11.5t11 10.5l-12 12l-12 12q-5 -6 -11 -11.5t-11 -11.5l11.5 -11.5l11.5 -11.5v0zM345 373l12 -12l11 -11q6 5 12 10.5t12 11.5
q-6 6 -11.5 12t-11.5 12q-6 -7 -12 -12.5t-12 -10.5v0zM481 582l-12 -12t-12 -11q6 -6 11.5 -12t11.5 -12l12 12t12 11q-6 7 -11.5 13t-11.5 11v0zM331 535l12 12l11 11q-6 6 -11.5 12t-10.5 13l-13 -13l-12 -12q6 -6 12 -11.5t12 -11.5zM430 633l-12 12l-12 12l-12 -12
t-12 -11l12 -12l12 -12q6 5 12 11l12 12v0zM294 694q-6 -6 -12 -11.5t-12 -11.5l12 -12l12 -12q6 6 12 11.5t12 11.5q-6 7 -12 12.5t-12 11.5v0zM617 446q-7 7 -13 12.5t-11 11.5q-6 -6 -12.5 -12t-12.5 -11l12 -12t12 -11q6 5 12 11t13 11v0zM518 545l-12 -12t-12 -11
l12 -12t11 -12q6 6 12.5 11.5t12.5 11.5q-6 6 -12.5 12t-11.5 12v0zM666 498q6 6 12.5 12t12.5 11l-12 12t-13 12q-5 -6 -11 -12t-13 -12q6 -6 12 -11.5t12 -11.5v0zM642 372q7 -6 13 -12t11 -12q7 7 13 12.5t12 10.5q-7 7 -13 12.5t-12 11.5q-6 -5 -11.5 -11t-12.5 -12z
M653 633q-6 6 -11.5 12t-10.5 11q-7 -6 -13 -11.5t-11 -9.5q6 -7 11.5 -13t11.5 -13l12 12t11 12zM406 461q6 5 11.5 11t11.5 12q-5 6 -11 12l-12 12l-12 -12l-12 -12l12 -12t12 -11v0zM705 582l-12 -12t-12 -11q6 -6 11.5 -12t11.5 -12l12 12t12 11l-12 12t-11 12v0z
M368 424q6 6 12 11.5t12 11.5q-6 6 -12 11.5t-11 11.5q-6 -6 -12 -11.5t-12 -11.5l11.5 -11.5l11.5 -11.5v0zM517 324q-6 -6 -11.5 -12t-11.5 -11q6 -7 11.5 -13t11.5 -12l12 12t13 12q-7 6 -13 12l-12 12v0zM689 447l-12 12l-11 11q-7 -6 -13 -12t-12 -11l12 -12l12 -12
l12 12l12 12v0zM382 410q6 -7 12 -13l11 -11q7 6 13 12t12 11q-6 7 -12 12.5t-12 11.5l-12 -12t-12 -11v0zM532 559q6 -6 11.5 -12t11.5 -12l12 12l11 11q-6 7 -11.5 13t-11.5 12q-6 -7 -12 -13l-11 -11v0zM630 460l12 12l12 12l-12.5 12.5l-11.5 11.5l-12 -12l-12 -12
q6 -6 11.5 -12t12.5 -12v0z" />
    <glyph glyph-name="uniE917" unicode="&#xe917;" 
d="M214 263q44 45 90 91.5t92 92.5q-46 48 -92.5 95t-92.5 94q28 29 56 57.5t56 57.5q48 -47 95.5 -94.5t96.5 -95.5q47 48 93 96t93 95q30 -31 57.5 -60t54.5 -57q-44 -45 -90 -91.5t-91 -92.5q46 -47 93 -94.5t92 -93.5q-29 -30 -57 -58.5t-58 -58.5q-46 48 -92.5 95.5
t-94.5 95.5q-48 -49 -94.5 -96.5t-91.5 -93.5l-58.5 58.5t-56.5 57.5v0zM594 227q-20 -21 -40.5 -41.5t-41.5 -42.5q-21 20 -41.5 41t-41.5 41q-23 -23 -45 -45.5t-43 -43.5q43 -44 86.5 -88.5t87.5 -89.5q44 44 87 88t84 86q-22 22 -44.5 46t-47.5 49v0zM687 762
q-43 43 -86.5 87.5t-86.5 89.5q-44 -45 -87.5 -89t-85.5 -86q22 -23 44.5 -46.5t45.5 -47.5l41.5 41.5l42.5 42.5q21 -21 41.5 -42t40.5 -41q23 23 46 46.5t44 44.5v0z" />
    <glyph glyph-name="uniE918" unicode="&#xe918;" 
d="M206 677q-30 -7 -58.5 -22t-51.5 -37q-35 -32 -54.5 -75.5t-19.5 -91.5t15.5 -87.5t48.5 -73.5q30 -31 65.5 -49t78.5 -23q41 -5 78 4t72 32q20 13 57.5 51t37.5 45q0 1 -5 8t-11 16l-16 23l-14 -18q-49 -61 -90.5 -85.5t-92.5 -21.5q-46 3 -84 26.5t-62 63.5
q-12 21 -17.5 41t-5.5 46q0 32 8.5 57t27.5 50q31 42 82.5 60.5t101.5 5.5q45 -12 86 -52t108 -138q36 -53 58 -81.5t47 -53.5q31 -32 58 -49t57 -25q19 -5 52.5 -6t52.5 3q41 10 78 33.5t62 57.5q11 14 20 30t10 21q0 1 -7 2t-23 1h-28l-11 -15q-18 -26 -47.5 -46.5
t-60.5 -27.5q-16 -4 -38 -4.5t-37 2.5q-46 10 -91 53.5t-107 135.5q-32 48 -58.5 82t-51.5 58q-27 27 -50.5 42.5t-50.5 25.5q-16 6 -25.5 7t-36.5 2q-20 0 -33.5 -0.5t-23.5 -2.5v0zM713 675q-16 -4 -35.5 -13.5t-38.5 -21.5q-14 -10 -40 -35.5t-39 -41.5l-11 -16l16 -22
q6 -10 11 -16.5t6 -6.5l2.5 2.5t5.5 7.5q53 69 103.5 96t107.5 16q45 -9 81 -38.5t53 -70.5q3 -7 5.5 -15t3.5 -12l2 -11h-223v-56h278l1 13q3 25 -3.5 59t-19.5 60q-18 36 -52 66.5t-73 46.5q-30 11 -70.5 14t-70.5 -5v0z" />
    <glyph glyph-name="uniE919" unicode="&#xe919;" 
d="M1014 501v-8.5v-9.5q-1 -3 -2 -6.5t-1 -7.5q-6 -25 -18.5 -46.5t-30.5 -40.5q-28 -30 -61 -52.5t-70 -39.5q-41 -20 -84 -35q-42 -15 -85.5 -25.5t-87.5 -16.5q-45 -7 -90 -10q-41 -3 -82.5 -2t-82.5 6t-80 13.5t-77 22.5q-26 10 -50.5 23.5t-46.5 31.5q-19 17 -33 37.5
t-19 46.5q-1 4 -1.5 8.5t-1.5 8.5v4v4q1 2 1.5 3.5t0.5 3.5q1 12 4 23.5t8 22.5q11 22 26.5 41t33.5 35q29 25 62 45t68 35q39 18 79 31q39 12 79.5 21.5t81.5 15.5t83 9q37 2 74 2t74 -4q41 -3 80.5 -10.5t78.5 -20.5q28 -10 54.5 -23t50.5 -31q19 -14 34 -32t23 -41l4 -16
l4 -16v0zM716 387q-6 -3 -11 -5t-10 -3q-22 -8 -44.5 -13t-45.5 -4q-9 1 -18 2.5t-18 4.5q-12 4 -17 16t0 24h4h5q21 1 42 1.5t43 2.5t43.5 9t40.5 21q9 6 16.5 15t11.5 20q5 13 7.5 27t1.5 29q-3 20 -13.5 35.5t-30.5 23.5q-5 2 -10.5 3.5t-10.5 2.5q-43 6 -80 -5t-69 -40
q-2 -1 -3 -2l-3 -3q-8 14 -19 23.5t-24 15.5q-13 5 -26.5 8t-27.5 3q-22 0 -44 -2.5t-44 -6.5q-10 -1 -19.5 -3t-19.5 -4q-3 -18 -5.5 -35t-6.5 -35q3 1 4 1.5t2 0.5q26 13 54 18.5t57 2.5q9 -1 18 -2.5t17 -6.5q9 -5 13 -15.5t0 -19.5q-17 -1 -33.5 -1.5t-33.5 -1.5
q-18 -1 -36 -3t-36 -8q-16 -6 -30.5 -14.5t-25.5 -22.5q-13 -15 -17.5 -32.5t-3.5 -36.5q1 -30 17 -48t45 -23q15 -3 30 -2.5t30 2.5q23 3 44.5 12t38.5 25q4 3 7 6l7 7q0 -1 0.5 -2t1.5 -2q13 -19 32 -29t42 -13q21 -3 42 -3.5t43 2.5q15 2 30.5 5t31.5 6q4 18 7.5 35.5
t6.5 36.5v0zM287 16q20 -25 45 -37.5t57 -12.5q16 0 31.5 4t30.5 11q26 11 49 27t44 36q37 35 67 76t55 85q1 1 1.5 2.5t1.5 2.5q-14 -3 -27.5 -5.5t-27.5 -5.5q-2 0 -4 -1.5t-4 -2.5q-26 -17 -52.5 -32.5t-53.5 -29.5q-45 -22 -91 -39t-95 -27q-13 -3 -26 -4.5t-26 -3.5
q5 -12 11.5 -22.5t13.5 -20.5v0zM87 207q2 -22 10.5 -41t24.5 -35q19 -19 43.5 -28.5t51.5 -12.5q31 -4 62 -1.5t62 9.5q57 13 110 36t103 52q2 1 3 2l1 1q-29 -2 -59 -4t-59 -3q-39 -2 -77.5 0t-76.5 7q-39 5 -76.5 14t-74.5 23q-12 4 -24 9.5t-24 10.5q0 -10 -0.5 -19.5
t0.5 -19.5v0zM408 697q3 0 5.5 1.5t5.5 3.5q34 22 69.5 42t73.5 37q41 18 83.5 31.5t87.5 20.5q7 2 14 2.5t15 1.5q-4 11 -12 24.5t-18 25.5q-26 28 -57 38t-67 2q-24 -5 -44.5 -15.5t-40.5 -23.5q-34 -25 -62 -54.5t-52 -63.5q-15 -20 -28.5 -41t-25.5 -43q14 3 27 5.5
t26 5.5v0zM567 714q53 2 105.5 -0.5t104.5 -12.5q39 -7 77 -18.5t75 -28.5l4 -2l4 -2q2 10 1.5 20.5t-1.5 19.5q-3 24 -13 44.5t-28 36.5q-19 16 -41.5 24.5t-46.5 11.5q-32 4 -63 1t-62 -10q-57 -13 -110 -36t-103 -52q-1 -1 -2.5 -2t-2.5 -1q26 2 51.5 4t50.5 3v0z
M564 465q19 -1 37 0t36 3q8 1 14.5 4.5t11.5 9.5q7 9 9 18.5t-2 20.5q-4 10 -12 14t-18 5h-1.5h-1.5q-31 1 -53 -20t-23 -54q1 0 2 -0.5l1 -0.5v0zM387 430q-9 -2 -16 -7.5t-12 -13.5q-8 -15 -3 -28.5t21 -18.5q17 -5 32.5 -1.5t28.5 15.5q12 11 17.5 26.5t9.5 31.5h-39.5
t-38.5 -4v0z" />
    <glyph glyph-name="uniE91A" unicode="&#xe91a;" 
d="M764 473q-20 -19 -83.5 -50t-129.5 -57q-3 5 -6 9.5t-5 8.5l-8 12l-8 12q-30 46 -55 97t-25 122q0 31 12 62.5t34 55.5l-107 99q-41 -44 -63 -101t-22 -116q0 -52 10 -96q10 -43 25 -80t34 -67q18 -30 34 -55q2 -4 4 -7l4 -6q-46 -17 -90 -35q-45 -19 -84 -40.5
t-71 -46.5t-53 -53q-55 -77 -60.5 -130t-5.5 -61l146 1l4 30.5t35 73.5q14 19 45 39q31 19 68.5 37t77.5 33t71 26q16 -24 29.5 -45.5t17.5 -33.5q2 -4 3.5 -8t3.5 -8q12 -30 24 -67.5t12 -81.5h146q0 65 -16.5 117t-29.5 86q-2 4 -3.5 8t-2.5 7q-6 16 -17.5 36t-25.5 42
q62 25 130 58.5t102 65.5l-101 107v0zM889 846q-46 51 -108 78.5t-131 27.5q-104 0 -169 -35.5t-99 -72.5l108 -99q28 30 68 45.5t92 15.5q65 0 122.5 -49.5t57.5 -134.5q0 -60 -18.5 -91t-47.5 -58l101 -106q43 41 77.5 99t34.5 156q0 61 -23 119.5t-65 104.5v0z" />
    <glyph glyph-name="uniE91B" unicode="&#xe91b;" 
d="M10 95q69 83 133 170q64 86 125.5 174.5t122.5 178.5q60 91 121 181q61 -90 121 -181q61 -90 122.5 -178.5t125.5 -174.5q64 -87 133 -170v-2v-3h-135.5h-136.5q-29 46 -57 91q-29 45 -57.5 90t-57.5 90l-58 90q-29 -46 -58 -91q-29 -46 -58 -91t-57 -89q-29 -45 -57 -90
h-137.5h-134.5v3v2v0z" />
    <glyph glyph-name="uniE91C" unicode="&#xe91c;" 
d="M473 924q-2 -2 -4 -5.5t-5 -6.5q-9 -10 -18 -19t-17 -19q-17 -20 -31 -42t-21 -48q-17 -59 -6 -112t54 -99q24 -26 52.5 -44t56.5 -36q24 -16 48.5 -32t47.5 -34q28 -22 49.5 -49t35.5 -61t19 -69.5t0 -72.5q-3 -17 -7 -33.5t-10 -32.5q-12 -33 -32.5 -59.5t-46.5 -48.5
q-11 -10 -22.5 -18t-23.5 -16q-2 -2 -5 -3.5t-6 -3.5q-4 -3 -8.5 -3t-7.5 4q-4 3 -3.5 8.5t5.5 9.5q9 10 18.5 19t18.5 19q19 20 34 43t24 50q16 52 10.5 101t-37.5 94q-10 14 -22 26t-26 21q-24 16 -48.5 31.5t-48.5 31.5q-23 14 -46.5 28.5t-44.5 30.5q-35 28 -60.5 63
t-36.5 79q-14 55 -7.5 109t37.5 103q13 21 30.5 39.5t38.5 33.5q11 8 22.5 15.5t23.5 15.5q3 2 6.5 3.5t6.5 1.5q5 1 8.5 -2t4.5 -11v0zM637 602q-5 -9 -9.5 -18t-7.5 -19q-4 -12 -0.5 -22.5t14.5 -16.5q9 -6 20 -4.5t20 10.5q7 9 14.5 18t12.5 19q22 47 28.5 96t-6.5 100
q-8 34 -25 62t-42 52q-17 17 -36.5 31t-42.5 25q-4 2 -7.5 2.5t-7.5 -3.5q-3 -4 -2.5 -8t3.5 -8l4 -4t3 -4q8 -8 15 -16l14 -16q29 -34 46 -74t17 -92q-1 -25 -6 -53.5t-19 -56.5v0zM331 71q22 -38 53 -65.5t70 -45.5q4 -2 7.5 -2.5t5.5 3.5q4 3 3.5 7t-2.5 8q-3 4 -7 7.5
t-7 7.5q-14 17 -28.5 33.5t-25.5 35.5q-34 57 -33.5 116t27.5 118q4 9 8.5 17.5t7.5 17.5q4 12 0 23t-14 18q-9 5 -20 3.5t-20 -10.5q-9 -8 -16 -18.5t-13 -21.5q-15 -30 -21 -61.5t-8 -64.5q1 -33 8 -65t25 -61v0z" />
    <glyph glyph-name="uniE91D" unicode="&#xe91d;" 
d="M7 643q27 -16 40 -15.5t34 18.5q16 13 34.5 17t37.5 4q17 0 33.5 -2.5t33.5 -3.5q5 -1 11 1t9 6q22 28 51 42.5t65 12.5q21 -1 38 7.5t32 22.5q4 3 8 6.5t9 8.5q8 -17 7.5 -33t-3.5 -31q-5 -32 -20 -59.5t-32 -53.5q-6 -9 -11.5 -17.5t-10.5 -17.5q-11 -18 -17 -37t4 -41
q8 -18 15 -36.5t18 -35.5q10 -15 22.5 -15t23.5 14q18 23 34.5 47t33.5 48q27 38 58.5 70.5t75.5 51.5q15 6 30.5 10t30.5 5q64 2 122.5 -15t106.5 -63q36 -33 54 -75t25 -89q5 -32 2.5 -64t-14.5 -64q-18 -43 -50.5 -69t-74.5 -42q-65 -24 -131.5 -27t-133.5 5
q-60 8 -118.5 24.5t-113.5 42.5q-38 19 -60.5 48t-22.5 73q1 67 -30 112.5t-91 72.5q-27 12 -53 25.5t-52 28.5q-19 11 -34 26t-22 36q-1 4 -2 8.5t-2 11.5v0zM736 205q18 2 36 4.5t36 6.5q75 18 113.5 73.5t13.5 139.5q-12 43 -42 75q-31 31 -70.5 48.5t-83.5 18.5
q-43 1 -82 -16q-61 -28 -95 -76.5t-44 -112.5q-6 -43 9 -81t65 -58q35 -14 71 -18t73 -4v0zM725 470q-15 22 -37 31t-43 3q-36 -10 -48.5 -48t-1.5 -70q7 -19 21.5 -31.5t31.5 -21.5q25 -15 47.5 -33.5t40.5 -45.5q19 31 46 51t55 39q35 23 43 51t-7 66q-11 25 -34 36.5
t-49 4.5q-19 -5 -32 -17.5t-22 -32.5q-3 6 -6 10t-5 8v0z" />
    <glyph glyph-name="uniE91E" unicode="&#xe91e;" 
d="M106 -12q0 31 1 61t-2 59q-4 24 -13 47t-16 46q-18 10 -35 20.5t-35 21.5q21 44 41.5 87.5t41.5 87.5h38h40q11 23 22.5 47.5t24.5 52.5h-55.5h-54.5q-1 34 6.5 63.5t17.5 57.5q22 58 54 102q32 45 74 77.5t93 54.5q51 21 111 32l40 8t41 4q75 0 145 -19t132 -64
q37 -27 68 -57q31 -31 55.5 -66.5t42.5 -75.5q17 -40 28 -85q2 -9 2 -19t1 -22q-53 -6 -104 -5t-104 2q-5 12 -10 24.5t-10 24.5q-14 36 -35.5 66.5t-53.5 53.5q-70 49 -142 48t-143 -41q-49 -27 -80 -71q-30 -43 -40.5 -93.5t-0.5 -102.5t43 -98q16 -22 41.5 -41.5
t70.5 -43.5v-121v-123h-84h-84.5h-85.5h-87v0zM555 635q-68 1 -123 -51t-56 -117q-1 -67 53 -119.5t123 -53.5q60 0 109.5 53t50.5 119q1 70 -44.5 118.5t-112.5 50.5z" />
    <glyph glyph-name="uniE91F" unicode="&#xe91f;" 
d="M79 700q54 32 108 63t108.5 62.5t109.5 63.5q54 31 109 63q54 -32 108 -63q55 -31 109 -62.5t109 -63.5l108 -62v-126v-126v-126v-127q-53 -31 -107 -62t-108.5 -62.5t-109.5 -62.5q-54 -32 -109 -64q-54 32 -109 63q-54 31 -108.5 62.5t-108.5 63.5q-55 31 -109 63v126
v125.5v125.5v126v0zM511 747q-29 -50 -57 -98t-56 -97q30 -17 59 -33.5t57 -32.5q28 16 55.5 32t55.5 32q-29 50 -57 98t-57 99v0zM251 297h113h110v62v62q-28 16 -56 32.5t-58 33.5q-27 -48 -54 -94.5t-55 -95.5v0zM553 297h108.5h109.5q-28 48 -54.5 94.5t-53.5 92.5
q-29 -17 -56.5 -32.5t-53.5 -31.5v-61.5v-61.5v0zM691 588q38 22 74.5 43.5t75.5 43.5q-37 22 -74 43t-73.5 42t-72.5 42t-73 42q0 -1 -1 -2l-2 -2q36 -62 72.5 -125t73.5 -127v0zM333 590q36 63 71 124t70 121l-2 2l-2 2q-35 -20 -70 -41q-36 -20 -71 -40.5t-71 -41.5
q-36 -20 -72 -41q38 -22 73.5 -42.5t73.5 -42.5zM729 522q35 -61 70.5 -122t72.5 -126v85v82v82v82q-37 -21 -72 -41.5t-71 -41.5zM474 56v82.5v78.5h-138h-142q72 -41 141 -81t139 -80zM553 56q71 41 140 80.5t141 81.5h-143h-138v-80v-82zM155 282q37 65 71 124t69 119
q-36 20 -70.5 40t-69.5 40v-160v-163v0z" />
    <glyph glyph-name="uniE920" unicode="&#xe920;" 
d="M512 -54q-103 0 -195 39q-93 40 -162 109.5t-108 163.5q-40 95 -37 204q1 51 11 99q11 47 30 90.5t47 83.5t65 75q38 37 81 65q42 27 88.5 44.5t96.5 25.5t103 6q97 -3 186 -43q88 -39 154.5 -107.5t105.5 -160.5t37 -200q-1 -101 -41 -191q-39 -90 -106.5 -157
t-158.5 -107q-92 -39 -197 -39v0zM512 906q-69 1 -131.5 -19t-109.5 -50q-55 -35 -97.5 -81.5t-71.5 -105.5t-40 -120.5t-4 -126.5q5 -48 18 -92t34.5 -83t51.5 -74q30 -34 68 -64q35 -28 73 -49q39 -20 79.5 -32t84.5 -16q43 -4 88 1q45 4 86 15q41 12 78.5 31t71.5 45
q33 27 63 60q33 38 57 79q23 40 37.5 84t18.5 91q5 47 1 97q-8 81 -45 156q-38 74 -98 130.5t-140 90.5q-80 33 -173 33v0zM83 449q1 84 29.5 157.5t85.5 134.5q32 34 68 60t76 43t83 26q43 8 90 8q43 0 83 -8t77 -23t71 -38q34 -22 65 -52q35 -34 60 -71q25 -38 41.5 -79
t23.5 -86t5 -93q-3 -80 -33 -149t-85 -126q-33 -35 -70 -60q-37 -26 -78 -43t-86 -24q-44 -8 -92 -6q-83 2 -158 36t-132 91.5t-91 134.5q-33 77 -33 167v0zM788 206q-32 72 -63 145q-32 73 -63.5 145t-62.5 145q-32 72 -63 145h-23.5h-23.5q-31 -73 -63 -145
q-31 -73 -62.5 -145t-62.5 -145q-32 -72 -64 -145h64.5h63.5q19 43 37 86q18 42 36.5 85t37.5 86q18 43 37 86l36 -86q19 -43 37.5 -86t36.5 -86q19 -42 37 -85h63.5h64.5v0z" />
    <glyph glyph-name="uniE921" unicode="&#xe921;" 
d="M957 448v-98v-99v-8.5v-8.5q-1 -21 -9.5 -36t-27.5 -26l-72 -40q-35 -21 -71 -41.5t-71 -41.5q-36 -20 -72 -41q-21 -12 -41.5 -24t-41.5 -24q-18 -12 -36 -11.5t-36 11.5q-37 22 -74.5 43t-74.5 43q-55 32 -109.5 64t-110.5 63q-20 11 -28.5 27t-8.5 38v33.5v33.5v87
v87.5v86.5q0 44 -1 87q0 26 9.5 44.5t33.5 32.5q35 19 70 39q34 20 69 40t69 41l70 40l44 26l44 26q18 10 35 9.5t34 -10.5q61 -36 121.5 -71t121.5 -70q30 -18 60.5 -36t61.5 -34q25 -13 33.5 -32t8.5 -44v-103v-103v0v0v0zM438 530q-9 -1 -16 -2t-14 -1q-42 0 -83 0.5
t-83 -0.5q-10 0 -20.5 -1t-20.5 -4q-21 -6 -35 -20t-19 -35t1 -39.5t22 -33.5q13 -12 28 -16t32 -4h90.5h90.5q7 0 13.5 -1t14.5 -2v-15v-13v-93v-93q1 -25 13 -43.5t35 -27.5q22 -10 42.5 -5.5t37.5 20.5q13 13 18.5 28.5t5.5 32.5v89.5v89.5v14.5v15.5q8 1 14 2t12 1h47.5
h46.5h49.5h48.5q29 1 49.5 18.5t25.5 44.5q4 25 -8 48.5t-37 32.5q-10 4 -21.5 5.5t-22.5 1.5q-40 1 -80 1h-80q-39 -1 -61.5 -22.5t-23.5 -60.5q-1 -7 -0.5 -13.5t0.5 -13.5h-35.5h-33.5v34v35q10 0 17.5 0.5t15.5 0.5q31 1 53 20t23 50q2 49 2 97.5t-2 96.5
q-2 39 -34.5 58.5t-67.5 6.5q-22 -9 -35 -28.5t-14 -45.5v-90.5v-90.5q0 -7 -0.5 -14.5t-0.5 -15.5v0zM480 353q-1 -48 -1 -95t1 -95v-6.5t1 -6.5q2 -13 11 -21.5t22 -8.5q14 0 23.5 8t12.5 22q0 5 0.5 10t0.5 10q-1 45 -1 91t-1 91q0 5 -0.5 10t-1.5 11h-32h-33
q-1 -7 -1.5 -11.5t-0.5 -8.5v0zM503 526q25 -2 36.5 10t10.5 36q-1 34 -0.5 68t0.5 68q0 10 0.5 19.5t-0.5 18.5q-1 15 -11 24.5t-23 9.5q-13 1 -23 -8t-13 -23v-8.5v-8.5v-89.5v-89.5v-11.5t1 -13.5q7 -1 12 -1.5t10 -0.5v0zM618 414h88h88h10t10 1q13 2 21.5 11.5
t9.5 22.5q0 12 -7.5 22t-20.5 13q-3 1 -6.5 1.5t-6.5 0.5h-87.5h-86.5q-4 0 -7 -0.5t-6 -1.5q-10 -4 -16.5 -10.5t-8.5 -16.5q-1 -10 -0.5 -20t0.5 -21q8 -1 14 -1.5t12 -0.5v0zM430 483q-53 1 -107 1h-107q-12 0 -20 -8.5t-10 -19.5q-2 -12 3 -22.5t16 -14.5
q5 -2 11.5 -3.5t12.5 -1.5h96t96 1q3 0 7 0.5t10 1.5v32v31q-3 1 -4.5 2t-3.5 1v0z" />
    <glyph glyph-name="uniE922" unicode="&#xe922;" 
d="M384 955h127.5h127.5q0 -1 0.5 -1.5t0.5 -1.5q14 -40 28.5 -80.5t29.5 -80.5q20 -58 40.5 -116t41.5 -116q15 -43 30 -85q15 -43 30.5 -85.5t30.5 -85.5q15 -42 30 -85l46 -130l46 -130q1 -1 1.5 -2.5t0.5 -2.5h-108h-108l-66 188q-34 94 -67.5 188t-66.5 188
q-34 94 -67 188v0h-1l-66 -188q-34 -94 -67.5 -188t-66.5 -189q-34 -94 -67 -188h-2h-2h-46.5h-47.5h-59h-59v0.5v0.5q0 1 0.5 1.5t0.5 1.5q2 6 4.5 12.5t4.5 12.5q22 61 43.5 121.5t42.5 121.5q23 63 45.5 126.5t44.5 126.5q17 48 34.5 96.5t34.5 96.5q23 66 47 133t47 133
q2 5 3.5 9.5t3.5 9.5v0zM512 173q48 0 81.5 -34t33.5 -83q0 -48 -34.5 -81.5t-83.5 -32.5q-46 1 -79.5 34t-33.5 81t34 82t82 34v0z" />
    <glyph glyph-name="uniE923" unicode="&#xe923;" 
d="M1012 449q0 -104 -38 -195q-39 -91 -106.5 -159t-160.5 -107q-92 -39 -199 -38q-101 1 -192 41q-90 40 -158 108.5t-107 160.5q-40 91 -38 196q1 101 41 191q41 91 110 159t162 107q92 39 197 37q100 -2 189 -43q89 -40 156 -108t106 -158t38 -192zM512 25q85 0 163 33
q77 33 135.5 91.5t93.5 137.5q34 80 34 173q0 87 -35 164q-35 78 -95.5 135t-142.5 89t-176 27q-79 -4 -153 -38q-74 -35 -130.5 -93.5t-89.5 -138.5q-33 -79 -29 -173q3 -81 37 -155t91 -130t133 -89t164 -33v0zM736 386q-25 -46 -63 -75t-90 -41q-43 -9 -85 -2
q-42 6 -78 27t-64 54q-27 33 -40 75q-15 46 -11 91t27 87q23 43 58 70.5t81 42.5q-35 -4 -70 -20q-36 -16 -66 -43t-53 -64t-32 -84q-8 -45 -3 -88q6 -44 24.5 -82t48.5 -70q31 -31 72 -52t86 -27q44 -6 86.5 2.5t81.5 31.5q39 22 70 57q29 34 45 73t19 79t-5 78t-26 70
q17 -49 14 -96.5t-27 -93.5v0zM440 574q3 -10 10.5 -14t15.5 -5q31 -3 61 -2t60 8q5 1 11 0t9 -4q13 -12 25 -23.5t22 -24.5q21 -28 28.5 -60t-0.5 -67q-3 -12 -7 -23.5t-7 -23.5q56 62 64.5 131t-28.5 144q8 5 15.5 10.5t15.5 10.5q-44 42 -85.5 81t-75.5 85
q-7 -73 -41.5 -128t-92.5 -95v0zM337 460q8 -55 47.5 -98t98.5 -56q47 -11 95.5 3.5t74.5 44.5q-67 -19 -124 -3t-98 74t-37.5 117.5t45.5 118.5q-58 -32 -85 -84.5t-17 -116.5v0zM524 781q2 -21 3.5 -42.5t3.5 -42.5q13 12 18 26t6 29q-7 8 -14.5 15.5t-14.5 15.5
q0 -1 -1 -1h-1v0z" />
    <glyph glyph-name="uniE924" unicode="&#xe924;" 
d="M843 349v117.5v116.5v74v74q0 23 9.5 32.5t32.5 9.5h43h42q25 0 34 -9.5t9 -34.5l-2 -146l-2 -146q0 -64 -1 -127t-1 -126q-1 -43 -12.5 -55t-53.5 -12h-74t-73 -1q-16 0 -26 6t-17 20q-24 44 -47.5 88.5t-47.5 88.5q-23 42 -46 85q-23 42 -45.5 84.5t-45.5 84.5
q-23 43 -46 85q-3 5 -6.5 10t-7.5 13q-29 -54 -58 -107l-58 -106t-58 -107q-29 -53 -58 -107h14.5h12.5q61 1 122 1.5t123 1.5q12 0 21 -4t15 -16q10 -18 21.5 -36t23.5 -36q2 -5 5 -10t4 -10q5 -14 1.5 -19.5t-17.5 -7.5q-8 -1 -15 -1h-14h-104q-51 0 -102.5 -0.5
t-103.5 -0.5h-103q-18 0 -36.5 2t-35.5 6q-29 6 -41.5 23.5t-4.5 45.5q9 28 21 55t26 53q28 52 56 103q28 52 56.5 104t57.5 103l56 104q15 27 36 40.5t52 12.5q44 -1 87.5 -1.5t87.5 1.5q29 1 48 -11.5t32 -35.5q35 -62 69.5 -124t68.5 -124q18 -31 35 -62t35 -63
q1 1 2.5 1h3.5v0z" />
    <glyph glyph-name="uniE925" unicode="&#xe925;" 
d="M344 165h-84h-84h-84h-84v86v84v83v83q44 28 87.5 56t87.5 56q5 3 12 3.5t13 0.5h139.5t139.5 1q9 0 19 3t17 7q37 23 72.5 46t71.5 46q5 3 9.5 5t9.5 2h156h157q2 0 4.5 -0.5t8.5 -1.5q1 -41 1 -82v-82.5v-83.5v-83l-5 -5t-6 -5q-40 -25 -79 -50.5t-79 -50.5
q-7 -4 -14.5 -6t-15.5 -2h-139.5h-139.5q-9 -1 -19.5 -3.5t-18.5 -7.5q-38 -24 -76 -49t-77 -50v0zM352 200q40 26 80 51q39 26 78.5 51.5t79.5 51.5l78 50v143.5v144.5l-80 -52t-79.5 -51.5t-78.5 -50.5q-39 -26 -78 -51v-143v-144zM325 480h-146.5h-144.5v-145v-145h146.5
h144.5v145.5v144.5zM987 411v146.5v144.5h-145.5h-144.5v-145.5v-145.5h145h145zM67 509q3 -1 5 -1.5t3 -0.5h125h126q4 0 9 2t9 5q28 17 55 34.5t55 35.5q2 1 3.5 3t3.5 4l-3 1.5t-2 0.5h-125h-126q-4 0 -8 -1t-7 -4q-30 -19 -60.5 -38.5t-62.5 -40.5zM560 304
q1 -1 1.5 -2.5t0.5 -2.5h9h9q53 0 106 0.5t106 -0.5q17 0 31.5 4t28.5 14q25 17 50.5 33t52.5 33q-4 1 -5.5 1.5t-2.5 0.5h-125.5h-125.5q-3 0 -6.5 -0.5t-6.5 -2.5q-30 -19 -61 -38.5t-62 -39.5v0z" />
    <glyph glyph-name="uniE926" unicode="&#xe926;" 
d="M512 -62q-19 0 -37 5t-34 14l-317 183q-33 20 -52.5 53t-19.5 71v366q0 38 19.5 71.5t52.5 52.5l317 183q33 19 71 19t71 -19l317 -183q33 -19 52.5 -52.5t19.5 -71.5v-366q0 -38 -19.5 -71.5t-52.5 -52.5l-317 -183q-16 -9 -34 -14t-37 -5v0zM512 906q-12 0 -24 -3
t-23 -9l-317 -183q-21 -13 -33.5 -34.5t-12.5 -46.5v-366q0 -25 12.5 -46.5t33.5 -33.5l317 -183q22 -13 47 -13t46 13l317 182q22 13 34.5 34.5t12.5 46.5v366q0 25 -12.5 46.5t-34.5 34.5l-316 183q-11 6 -23 9t-24 3v0zM512 104q-10 0 -20 3t-19 8l-230 132
q-18 11 -28 28.5t-10 38.5v266q0 20 10 38t28 29l230 132q18 11 39 11t39 -11l230 -132q18 -11 28 -29t10 -38v-266q0 -20 -10 -38t-28 -28l-230 -133q-9 -5 -19 -8t-20 -3v0v0zM512 753q-5 0 -10 -1.5t-10 -4.5l-230 -133q-9 -5 -14.5 -14.5t-5.5 -19.5v-266q0 -11 5.5 -20
t14.5 -15l230 -132q10 -6 20.5 -6t19.5 6l230 132q10 6 15 15t5 20v266q0 11 -5 20t-15 15l-230 132q-5 3 -10 4.5t-10 1.5v0v0zM512 273q-5 0 -10 1t-10 4l-116 67q-10 6 -15 15t-5 20v135q0 10 5.5 19.5t14.5 14.5l116 67q10 5 20.5 5t19.5 -5l117 -67q9 -5 14 -14.5
t5 -19.5v-135q0 -11 -5 -20t-14 -14l-117 -68q-5 -3 -10 -4t-10 -1v0v0zM512 596h-4t-3 -1l-117 -68q-3 -2 -5 -5t-2 -7v-135q0 -4 2 -7.5t5 -5.5l117 -68q3 -2 7 -2t7 2l117 67q4 2 5.5 6t1.5 8v134q0 4 -2 7.5t-5 5.5l-117 67q-1 2 -3 2h-4v0v0z" />
    <glyph glyph-name="uniE927" unicode="&#xe927;" 
d="M774 186q-24 -24 -58 -24t-58 24q-25 24 -25 58t25 58q24 25 58 25t58 -25q24 -24 24 -58t-24 -58zM425 11l116 117q12 12 29 12t29 -12t12 -29t-12 -29l-116 -117q-12 -12 -29 -12t-29 12t-12 29t12 29zM891 127l116 -116q12 -12 12 -29t-12 -29t-29 -12t-29 12
l-116 116q-13 12 -13 29.5t13 28.5q11 13 28.5 13t29.5 -13zM366 594q-24 -25 -58 -25t-58 25q-24 24 -24 58t24 58t58 24t58 -24q25 -24 25 -58t-25 -58zM425 827l116 116q12 12 29 12t29 -12t12 -29t-12 -29l-116 -116q-12 -13 -29 -13t-29 13q-12 11 -12 28.5t12 29.5z
M483 535l116 -116q13 -12 13 -29t-13 -29q-12 -12 -29 -12t-29 12l-116 116q-12 12 -12 29t12 29t29 12t29 -12v0zM75 943l117 -116q12 -12 12 -29.5t-12 -28.5q-12 -13 -29 -13t-29 13l-117 116q-12 12 -12 29t12 29t29 12t29 -12v0z" />
    <glyph glyph-name="uniE928" unicode="&#xe928;" 
d="M1023 -64h-160l-104 387l-224 -387h-179l346 600l-56 208l-466 -808h-179l591 1024h157l68 -255h162l-110 -191z" />
    <glyph glyph-name="uniE929" unicode="&#xe929;" 
d="M634 903h-244l-382 -912h270l235 605l237 -605h266z" />
    <glyph glyph-name="uniE92A" unicode="&#xe92a;" 
d="M1016 116q-33 -37 -74 -64.5t-89 -42.5q-51 -15 -99 -18q-48 -2 -93.5 8.5t-87.5 34.5q-42 23 -80 60q-55 53 -119 80.5t-139 27.5q-60 -1 -114.5 -20t-102.5 -56q-3 -2 -6.5 -4.5t-7.5 -4.5q59 99 119 199q59 99 119 198.5t119 198.5l120 200q2 -3 3.5 -5.5t3.5 -4.5
q43 -72 86 -143q42 -72 85 -143.5t86 -142.5q43 -72 86 -143q27 -46 58.5 -88t69.5 -79q13 -13 27.5 -24.5t29.5 -23.5v0z" />
    <glyph glyph-name="uniE92B" unicode="&#xe92b;" 
d="M681 61q-7 -24 -13 -48l-12 -48q-19 16 -36.5 32.5t-36.5 34.5q-12 -22 -24 -43.5t-24 -44.5q-14 22 -27.5 42.5t-27.5 40.5q-17 -18 -33.5 -36t-33.5 -37q-9 24 -17 47t-17 46q-20 -13 -40.5 -26.5t-42.5 -28.5q-2 25 -4.5 49.5t-5.5 49.5q-23 -8 -46 -16.5t-47 -17.5
q3 25 6.5 49t7.5 50q-25 -3 -49 -5t-50 -5q10 24 19 46.5t18 45.5q-25 4 -49 7t-50 6q15 21 29.5 40.5t29.5 40.5q-22 9 -45 18t-47 19q19 16 37.5 32t37.5 33q-20 14 -40 28.5t-40 28.5q22 11 43.5 22t44.5 23q-16 18 -32 36.5t-33 38.5q25 6 49 11t48 11l-22 44t-23 44
h49.5h49.5q-5 24 -10.5 47.5t-11.5 48.5q25 -7 48.5 -13t47.5 -13v49.5v51.5q23 -13 45 -25l44 -24q6 24 12.5 47.5t12.5 48.5q19 -17 37 -33.5t37 -34.5q11 22 23 43.5t24 44.5q14 -21 27.5 -41.5t27.5 -42.5q17 19 33.5 37t33.5 36q8 -23 16.5 -46t16.5 -47
q21 14 41.5 27.5t41.5 27.5q2 -25 4.5 -49.5t5.5 -49.5q24 9 46.5 17t46.5 17q-3 -25 -6.5 -49t-7.5 -49q25 2 49.5 5t50.5 5q-10 -23 -19 -45.5t-19 -46.5q25 -3 49 -6.5t49 -6.5q-14 -21 -28 -41t-29 -40q23 -9 45.5 -18t46.5 -19q-19 -16 -37.5 -32t-37.5 -32
q20 -15 39.5 -29t40.5 -29q-23 -11 -44.5 -21.5t-44.5 -22.5q16 -19 32 -37.5t33 -37.5q-25 -6 -48.5 -11.5t-48.5 -10.5q11 -23 22 -44t23 -43h-50h-49q5 -24 10.5 -48t11.5 -49q-24 7 -48 13t-49 13v-49.5v-50.5q-22 12 -43.5 24t-43.5 24v0zM251 453q-1 -55 19 -102
t54 -82t79 -56q44 -21 94 -23q60 -3 110 16q50 20 86.5 54.5t57.5 78.5q21 45 24 92q4 63 -16 114t-55.5 87.5t-80.5 57.5t-90 24q-62 3 -114 -17q-53 -21 -90.5 -58t-57.5 -86q-21 -48 -20 -100v0zM483 347h-20.5h-19.5q-5 14 -10 27.5t-10 27.5h-36.5h-36.5
q-4 -13 -9 -26.5t-11 -27.5h-17.5h-19.5l40 104l40 104h14.5h15.5q19 -52 39.5 -104t40.5 -105v0zM387 511l-13.5 -40.5t-12.5 -39.5h26h26q-7 20 -13 39.5t-13 40.5zM678 527h25.5h24.5q1 8 2.5 14.5t2.5 13.5h-72.5h-72.5v-13.5v-14.5h26h27v-90.5v-88.5h18h19v89.5v89.5
v0zM539 556h-19h-18v-105v-103h57h56v14.5v15.5h-37.5h-38.5v89v89v0z" />
    <glyph glyph-name="uniE92C" unicode="&#xe92c;" 
d="M421 573l-148 320q-59 -32 -108 -79q-49 -46 -83.5 -103t-53.5 -123t-19 -138q0 -66 16 -127t45.5 -115t71.5 -99q41 -45 92 -79l187 543v0zM520 711l91 232q-24 5 -48.5 7.5t-50.5 2.5q-21 0 -41.5 -1.5t-41.5 -5.5zM446 177h130l-64 212zM623 16h-223l-17 -53
q31 -8 63.5 -12.5t65.5 -4.5t65.5 4.5t62.5 12.5l-17 53v0zM769 883l-152 -311l177 -540q50 34 91 79t70 98.5t45 114.5t16 126q0 69 -18 133t-50.5 119.5t-77.5 101.5q-46 46 -101 79v0z" />
    <glyph glyph-name="uniE92D" unicode="&#xe92d;" 
d="M999 432q-19 -36 -44.5 -67t-55.5 -59q-33 -31 -69 -56q-36 -24 -75 -43t-81 -31t-87 -17q-64 -7 -125 -2t-117.5 23.5t-109.5 49.5q-52 31 -100 75q-26 24 -48.5 51t-42.5 56q-9 13 -9 25t9 25q35 50 76 92q40 41 87.5 72.5t101.5 52.5t115 30q48 8 94 8q47 0 92 -7.5
t89 -22.5q44 -16 87 -39q60 -34 109 -79.5t87 -102.5q5 -7 9 -14l8 -14v-3v-3v0zM685 636q0 -1 1 -2l2 -2q29 -26 49.5 -57.5t30.5 -69.5q2 -5 4.5 -8.5t6.5 -6.5q10 -7 12 -17.5t-4 -19.5t-16.5 -12t-20.5 2t-13.5 15.5t1.5 20.5q4 7 3.5 12.5t-2.5 11.5q-18 57 -56 95
q-39 39 -88 56.5t-103 12.5t-102 -35q-3 -2 -5.5 -4t-5.5 -3q-6 -3 -11 -1.5t-8 7.5q-1 2 -2 5t-2 7q-43 -15 -80 -35q-38 -21 -71.5 -46.5t-62.5 -56.5q-29 -32 -55 -68q24 -35 52 -65q28 -31 60 -56.5t68 -45.5q37 -21 77 -36q-1 3 -2 4l-1 1l-3.5 3.5l-2.5 2.5
q-27 26 -45.5 56.5t-27.5 66.5q-2 7 -4.5 12.5t-7.5 10.5q-9 8 -9 19t7 19t17.5 9t19.5 -5t11.5 -16.5t-4.5 -20.5q-4 -6 -4 -11t2 -11q13 -47 42 -84q29 -36 69 -58t88 -28q48 -5 101 11q16 4 31 13t30 17q11 6 16.5 4t9.5 -14q0 -1 1 -2l2 -2q42 14 78 35q37 20 70 45.5
t62 56.5t54 67q-25 35 -53 66q-28 30 -60.5 55.5t-68.5 45.5t-77 34v0zM728 435q0 -43 -17 -82q-16 -39 -45 -67.5t-68 -45.5q-38 -17 -82 -17t-83 16q-38 17 -67 46t-46 67q-17 39 -17 83t17 82q16 39 45 68t68 45q38 17 82 17t83 -16q39 -17 67.5 -45.5t45.5 -67.5t17 -83
v0zM699 434q1 76 -52.5 130t-129.5 55q-77 0 -131 -53.5t-55 -129.5q0 -76 54 -130t130 -54t130 53t54 129zM763 420q-6 0 -10 -3.5t-5 -10.5q-5 -36 -19.5 -67.5t-38.5 -58.5q-5 -6 -5 -12t4 -10q5 -4 11 -3.5t11 6.5l2 2l2 2q18 21 31.5 45t20.5 52q3 10 5 20t4 18
q0 10 -3.5 14.5t-9.5 5.5zM268 458q5 -1 9.5 2.5t6.5 11.5q1 2 1.5 4t0.5 4q6 30 19.5 57.5t33.5 50.5q3 3 5 6l4 6q3 4 2 8.5t-5 6.5q-3 2 -7.5 2.5t-8.5 -0.5q-3 0 -5.5 -2.5t-3.5 -5.5q-10 -13 -19.5 -26t-17.5 -27q-11 -18 -17 -38.5t-9 -40.5q-1 -8 2 -12.5t9 -6.5v0z
M517 306h17.5h17.5q15 0 19.5 5t2.5 19q-4 23 -7.5 45t-7.5 44q-1 8 0 14t8 12q20 20 20 48.5t-21 48.5q-20 20 -48.5 20t-48.5 -20q-21 -19 -21.5 -48t19.5 -49q6 -6 8 -11.5t0 -13.5l-8 -46t-7 -46q-2 -12 2.5 -17t15.5 -5h19.5h19.5v0v0v0z" />
    <glyph glyph-name="uniE92E" unicode="&#xe92e;" 
d="M513 952q13 0 23 -5.5t18 -14.5l83.5 -83.5l83.5 -83.5q34 -34 69 -68q34 -34 68 -68.5t68 -68.5q35 -34 69 -68q12 -12 18 -25.5t1 -29.5q-3 -8 -7.5 -15.5t-10.5 -13.5q-23 -24 -47 -47.5t-48 -47.5l-86 -86l-86 -86l-86 -86l-86 -86q-8 -8 -17.5 -15t-22.5 -7
q-12 -1 -22.5 3t-19.5 13q-13 14 -27 27.5t-28 27.5l-96 96l-96 96l-96 96l-96 96q-3 4 -7 7.5t-7 7.5q-13 15 -13 32t13 32q2 3 4 5t4 5q55 55 111 110l110 110l110 110l110 110q9 9 19 15.5t23 5.5v0zM425 445q-2 12 -6 21t-12 17q-22 22 -44 44.5t-45 43.5
q-17 17 -36.5 17t-36.5 -17q-22 -21 -44 -43t-43 -44q-17 -17 -17.5 -36.5t16.5 -36.5q22 -23 44 -45t45 -44q16 -15 35 -16t35 15q24 22 47 45.5t46 47.5q6 6 9 14.5t7 16.5v0zM653 204q0 11 -3.5 20t-11.5 16q-22 23 -44.5 45.5t-45.5 44.5q-16 15 -35 15.5t-34 -14.5
q-24 -22 -47.5 -45.5t-45.5 -47.5q-15 -15 -15 -33t14 -34q23 -24 47 -47.5t48 -46.5q16 -15 34 -14t33 15l46 46l46 46q7 7 10.5 15.5t3.5 18.5v0zM896 448q0 10 -3.5 18.5t-10.5 15.5l-46 46t-46 45q-16 15 -34.5 15t-34.5 -14q-23 -23 -46 -45.5t-46 -46.5
q-15 -16 -15 -34.5t15 -34.5q22 -24 45.5 -47t47.5 -46q15 -14 34 -14t34 15q24 23 46.5 46t45.5 46q7 7 10.5 16t3.5 19v0z" />
    <glyph glyph-name="uniE92F" unicode="&#xe92f;" 
d="M360 575q34 35 68 69q33 34 65.5 67.5t65.5 66.5q32 33 65 66q50 -51 100 -101t99 -100t98 -99t97 -98q-49 -49 -98 -99q-49 -49 -98.5 -99t-98.5 -101q-50 -51 -101 -102q-29 31 -59 62q-29 30 -59 61.5t-60 62.5l-62 64q-32 -36 -60.5 -68t-56.5 -63l-67 67t-65 65.5
t-64 64.5q-32 31 -63 63q32 31 64 63q32 31 64.5 62.5t65.5 63.5q32 31 65 63q20 -21 44 -46.5t51 -54.5v0z" />
    <glyph glyph-name="uniE930" unicode="&#xe930;" 
d="M184 398q7 -45 28 -91q21 -45 56 -83t85 -65t115 -36q46 -7 98 1t100 33.5t88 68.5q41 44 66 107q29 75 21.5 149t-49.5 142q-43 69 -106 108.5t-143 47.5q0 41 -0.5 80t-2.5 77q0 12 4.5 15t13.5 2q23 -4 46 -7t45 -11q33 -12 66.5 -25t63.5 -32q28 -18 54 -41t49 -48
q24 -29 46 -60.5t39 -65.5q33 -63 44 -130.5t3 -139.5q-8 -74 -35.5 -140t-73.5 -124q-37 -47 -84.5 -82t-102.5 -59q-50 -22 -102.5 -34.5t-108.5 -9.5q-66 3 -127.5 19t-118.5 49q-61 35 -109 83t-81 110q-19 36 -34.5 74.5t-23.5 78.5q-7 37 -6 75.5t4 76.5
q4 52 21 100.5t43 92.5q12 21 25.5 40t27.5 40l-56 48t-59 51q48 7 94 14l92 14l92 14t91 14v-93q-1 -46 -1 -92.5t-1 -93.5v-95q-31 27 -58.5 51t-55.5 48q-16 -11 -34 -36t-31 -60.5t-19 -78.5q-6 -44 2 -91v0zM431 355q37 -35 91 -31t91 50q27 35 25 87.5t-41 83.5
q-45 37 -94.5 33.5t-87.5 -45.5q-30 -34 -29.5 -88t45.5 -90v0z" />
    <glyph glyph-name="uniE931" unicode="&#xe931;" 
d="M565 313q1 76 -53.5 130.5t-133.5 56.5q-27 0 -46.5 12.5t-31.5 36.5q-11 23 -8 45.5t19 43.5q12 16 28.5 24t37.5 8q72 1 123 45.5t63 115.5q2 7 2 14.5v14.5q2 34 25 57.5t57 24.5q35 2 59.5 -19.5t29.5 -56.5q2 -19 4.5 -38.5t8.5 -37.5q20 -55 67.5 -86.5
t108.5 -33.5q34 -1 57.5 -23t26.5 -56q3 -30 -16 -56t-50 -33q-40 -10 -71.5 16t-33.5 69q-1 70 -44.5 120.5t-111.5 62.5q-74 13 -138 -31t-78 -118q-14 -77 29 -142t119 -78q9 -2 18.5 -2.5t19.5 -1.5q34 -1 57.5 -24t25.5 -56q2 -35 -19.5 -60t-55.5 -30q-15 -2 -30 -3
t-29 -5q-62 -16 -99.5 -65t-39.5 -116q-1 -34 -22 -57t-55 -27q-30 -4 -56.5 14t-33.5 48q-3 10 -3.5 20.5t-1.5 20.5q-6 69 -55.5 116.5t-118.5 52.5q-8 0 -16.5 0.5t-16.5 2.5q-30 6 -49 32.5t-16 57.5q4 33 28 55.5t57 22.5q32 0 56 -21t28 -53q2 -15 3.5 -30.5
t5.5 -29.5q18 -70 77.5 -108.5t131.5 -28.5q68 9 113.5 62t46.5 125v0zM456 330q-6 31 -28.5 49t-57.5 19q-69 3 -119 45.5t-63 108.5q-12 63 18 121.5t90 83.5q19 8 40.5 11.5t43.5 6.5q41 4 64 38.5t9 74.5q-10 28 -36 44t-55 12q-33 -5 -53 -28t-22 -58
q-3 -80 -54.5 -131.5t-130.5 -54.5q-38 -1 -62.5 -25t-25.5 -60q0 -36 25 -60t64 -27q16 -1 32.5 -3.5t31.5 -8.5q57 -24 87 -66.5t33 -104.5q2 -39 26 -64t60 -25q40 0 65.5 31.5t17.5 70.5v0z" />
    <glyph glyph-name="uniE932" unicode="&#xe932;" 
d="M11 -64v21.5v21.5q4 1 7.5 1.5t7.5 1.5q10 2 20.5 4.5t21.5 5.5q3 1 5.5 2t5.5 2q14 5 26 13.5t21 20.5q6 8 11.5 16.5t10.5 17.5q7 13 13 26t11 26q11 26 21.5 53t20.5 53q19 46 37 92l36 92l36 92q18 45 36 91q18 44 35 88q17 43 33.5 87t33.5 87q17 44 33 88
q1 2 1.5 3.5t1.5 3.5q12 4 24.5 7.5t24.5 6.5q1 -2 1.5 -3.5t1.5 -3.5l28 -78l28 -78l48 -134q24 -66 48 -133t48 -133q24 -67 49 -134q13 -36 27 -72t27 -73q6 -14 12 -29t13 -28q4 -6 7 -12t7 -12q11 -17 28.5 -29.5t37.5 -18.5q11 -2 22 -4.5t22 -3.5l11 -2q1 -4 1 -7.5
v-6.5v-7v-7v-7.5v-6.5q-1 -1 -2 -1h-2h-2.5h-2.5h-370q-1 1 -1 1.5v1.5v18.5v19.5v1v1q3 0 5 0.5t5 1.5q11 1 22.5 3.5t22.5 5.5q5 1 9.5 2.5t8.5 3.5q2 1 4.5 2t4.5 2q11 6 15.5 15.5t3.5 22.5q0 5 -1.5 11t-2.5 11q-2 9 -5 17t-6 17l-58 162q-29 82 -58 163.5t-57 162.5
q-29 82 -58 163q0 2 -0.5 4t-2.5 4q-1 -1 -1.5 -1t-0.5 -1q-1 -1 -1.5 -2t-0.5 -2l-28 -80q-15 -40 -29.5 -79.5t-29.5 -79.5q-14 -40 -29 -80q-22 -59 -43.5 -118t-41.5 -118q-9 -24 -16.5 -48t-15.5 -48q-3 -9 -5 -18.5t-4 -19.5q-1 -6 -1 -12.5v-13.5q1 -8 5.5 -15.5
t11.5 -12.5q4 -3 9 -5.5t10 -4.5q9 -3 17.5 -5t17.5 -3q9 -2 19 -3.5t19 -3.5h1.5h1.5v-1.5v-1.5v-18.5v-18.5v-1.5v-1.5h-2h-1h-3h-3h-330v0z" />
    <glyph glyph-name="uniE933" unicode="&#xe933;" 
d="M813 372h-76h-73q-37 61 -74 123.5t-77 127.5l-88 -148t-88 -147.5t-87 -146.5l-88 -146h-72.5h-76.5q63 105 125 209t124.5 208.5t125.5 209.5q62 105 125 210q38 -63 75 -125q38 -63 75 -125t74 -125q38 -62 76 -125v0zM921 189q-23 40 -45 76.5t-43 72.5h-113h-113
h-111h-112q-23 -38 -45 -75t-44.5 -75t-45.5 -76l-46 -76h96h91q23 38 45.5 76t46.5 77h109h109h110h111v0zM500 152q-18 -29 -35 -57.5t-35 -58.5h147h145h145h146q-18 31 -35.5 59.5t-33.5 56.5h-112h-110.5h-111.5h-110zM404 372h109.5h109.5q-28 46 -54.5 90.5
t-55.5 91.5q-28 -48 -54.5 -92t-54.5 -90v0z" />
    <glyph glyph-name="uniE934" unicode="&#xe934;" 
d="M931 177l-104 192t-104.5 191.5t-104.5 191.5l-106 194q-53 -97 -105 -193q-53 -96 -105 -192l-104 -192q-53 -95 -105 -191q-41 56 -63 133q-23 77 -18.5 161t37.5 169q34 85 105 157t160 110t183 40.5t185 -29.5t166 -99q75 -69 115 -154q40 -84 48 -171t-13 -170
t-67 -148v0zM865 94q-13 24 -26 48.5t-26 47.5h-151h-150h-150h-151l-26 -48t-27 -48q75 -77 170 -113q94 -36 191 -34.5t188 38.5q91 38 158 109v0zM313 377l-24 -44t-24 -45h124h123.5h123.5h123q-12 23 -24 45l-24 44h-100h-99h-100h-99v0zM367 476h145.5h144.5
q-37 67 -72.5 132.5t-72.5 133.5q-37 -68 -72.5 -133.5t-72.5 -132.5z" />
    <glyph glyph-name="uniE935" unicode="&#xe935;" 
d="M812 616v-145l-300 168l-327 -184v-190l327 -183l456 256v-146l-456 -256l-457 256v336l457 256zM212 425v-146l300 -167l457 256v335l-457 257l-457 -257v-145l457 257l326 -184v-191l-326 -183l-300 168v0z" />
    <glyph glyph-name="uniE936" unicode="&#xe936;" 
d="M515 951l-431 -252v-157h93v103l338 198l337 -198v-103h93v157zM852 248l-291 -170v160q71 15 118 72t47 132q0 44 -16 82q-17 38 -45 66.5t-67 44.5q-38 17 -81 17t-81 -17q-38 -16 -66.5 -44.5t-45.5 -66.5q-16 -38 -16 -82q0 -75 47 -132t118 -72v-163l-296 173v98
h-93v-152l431 -252l46 28l384 224v152h-93v-98v0zM401 442q0 48 34 82t82 34t82 -34t34 -82q0 -47 -34 -81t-82 -34t-82 34t-34 81z" />
    <glyph glyph-name="uniE937" unicode="&#xe937;" 
d="M743 388q1 2 1.5 4.5t1.5 5.5q11 52 39 69t49 17v0h1q20 0 30.5 -6t14.5 -10q5 -5 12 -20t-9 -39q32 5 71 39.5t42 112.5q3 64 -34.5 108.5t-88.5 73.5v0v0v0l-17 9l1 11.5t-1 22.5q-76 47 -151 75q-74 27 -139.5 40.5t-117.5 15.5t-81 -2l51 -51q-84 -6 -157 -41
q-74 -35 -128.5 -91.5t-85.5 -130.5q-32 -74 -32 -158q0 -97 41 -184q40 -86 110 -151t164 -102q94 -38 201 -38q80 0 152 22q73 22 134.5 60.5t111.5 92.5q50 53 85 115q-46 -11 -94 -7t-87 21t-64 46t-26 70v0zM823 751q-1 1 -17 5.5t-35 6.5q-10 -10 -18 -15t-11 -7
q-57 13 -80.5 34.5l-23.5 21.5q54 1 101.5 -11.5t83.5 -34.5z" />
    <glyph glyph-name="uniE938" unicode="&#xe938;" 
d="M517 953q103 -1 193 -41q91 -39 159 -107t108 -159q40 -92 40 -197q0 -104 -39 -196q-40 -91 -108.5 -160t-160.5 -109q-92 -39 -196 -39t-196 39q-91 39 -159.5 106.5t-107.5 158.5q-40 90 -41 194q-1 107 38 200t108 162t162 108q93 40 200 40v0zM572 196h-95h-94.5
h-95.5h-97q39 -44 82 -76q43 -33 91 -52t100 -25t110 2q80 11 144.5 50t117.5 102h-72h-69l-30 62t-31 63q-15 -32 -30 -63t-31 -63v0zM613 844q33 -73 66 -145q32 -73 65 -145.5t66 -145.5q33 -72 65 -145q48 92 46 187t-40.5 175.5t-108.5 139.5q-70 58 -159 79zM395 839
q-42 -11 -85 -35q-42 -24 -78.5 -58.5t-65.5 -79.5q-28 -45 -44 -99q-23 -77 -16.5 -153t43.5 -151q31 73 62 145q30 72 61 144t61 143zM621 416l-54 110t-54 112q-28 -57 -54.5 -112t-53.5 -110h107.5h108.5z" />
    <glyph glyph-name="uniE939" unicode="&#xe939;" 
d="M512 954q57 -31 114 -61q56 -31 112.5 -61t112.5 -61q57 -30 114 -61v-129v-129.5v-129.5v-129l-114 -62q-56 -31 -112.5 -61.5t-113.5 -61.5l-114 -62l-112 60l-112 60l-112 60q-56 29 -112 59q-2 9 -4 86q-1 77 -1.5 169t0.5 173q0 81 2 98l112 60t112.5 60.5
t113.5 60.5l114 62v0zM125 227l98 -52q48 -25 96.5 -51t95.5 -51q48 -26 95 -51q50 27 98 53q49 27 97.5 53t96.5 52t96 53v110v109.5v109.5v109q-48 26 -97 52q-48 25 -96 51l-96 52t-97 52q-48 -26 -97 -52q-48 -26 -96.5 -52t-96.5 -52q-49 -26 -97 -52v-111v-110.5
v-110.5v-111v0zM606 322q-24 -4 -47 -7.5t-46 -3.5q-21 -1 -43.5 2t-46.5 5v-83v-86q-18 7 -33 14t-30 13v85v85q-44 25 -79.5 57.5t-64.5 74.5q50 71 116.5 115.5t154.5 50.5t159 -29.5t129 -99.5q20 10 39 20t40 21v-33.5v-32.5q-36 -11 -63 -35t-52 -50q-14 -15 -31 -27
l-34 -24q-4 -42 -2 -66.5t10 -38.5q31 7 34.5 29t4.5 47q16 9 31.5 17.5t31.5 17.5q15 -43 -19 -103t-84 -78q-8 -2 -16.5 -3.5t-16.5 -1.5q-15 1 -24.5 8t-12.5 22q-3 11 -3.5 22.5t-0.5 23.5q-1 17 -1 35v37v0zM301 478q22 -25 47.5 -44.5t60.5 -34.5q-28 44 -24 83t31 76
q-35 -13 -63.5 -33t-51.5 -47v0zM597 561q31 -39 34.5 -79t-20.5 -83q33 16 59 35t47 44q-25 27 -53.5 48t-66.5 35v0zM228 608q15 -8 29 -15.5t28 -14.5q47 50 102.5 75.5t121.5 24.5q67 -1 121.5 -26.5t98.5 -74.5q15 8 29 15.5t29 15.5q-56 73 -134 106q-78 32 -158 29.5
t-152 -37.5t-115 -98v0z" />
    <glyph glyph-name="uniE93A" unicode="&#xe93a;" 
d="M394 885h118l512 -875h-355l-157 269l-157 -268h-118l275 470l221 -377h118l-457 781v0zM0 11l394 673l59 -101l-335 -572h-118v0z" />
    <glyph glyph-name="uniE93B" unicode="&#xe93b;" 
d="M514 937q101 0 191 -39t156.5 -106t105.5 -158q38 -90 37 -194q-2 -100 -41 -189t-106.5 -155t-157.5 -103q-90 -38 -193 -37q-101 2 -189 41q-89 40 -154.5 107.5t-103.5 157.5t-36 192q1 101 41 189q39 88 105.5 153.5t154.5 102.5q89 38 190 38v0zM511 -5q93 0 175 35
q83 36 144 97.5t97 143.5q35 82 35 176q0 93 -36 175q-35 83 -96.5 144t-143.5 96q-82 36 -176 36q-93 0 -175 -36q-83 -35 -144 -96.5t-97 -143.5q-35 -83 -35 -176t36 -176q35 -82 96.5 -143t143.5 -97q82 -35 176 -35v0zM510 17q-89 0 -167 34t-136.5 92t-91.5 137
q-34 78 -34 166q0 89 34 168q34 78 92.5 136.5t136.5 91.5q78 34 168 34q88 0 166 -34t136.5 -92.5t91.5 -136.5q34 -78 34 -167q0 -88 -34 -167q-34 -78 -92 -136.5t-137 -91.5q-78 -34 -167 -34v0zM684 515h1.5h0.5h39.5h38.5q10 0 15 5.5t6 15.5v6.5v7.5q0 12 -5.5 17
t-17.5 5h-47h-46q-3 0 -5 1.5t-3 4.5q-5 15 -10.5 30t-11.5 30q-7 20 -14.5 41t-16.5 41q-7 18 -19.5 31.5t-29.5 21.5q-23 9 -54.5 6t-54.5 -31q-7 -9 -13 -18.5t-10 -20.5q-12 -33 -24 -65.5t-24 -65.5q-2 -4 -4 -5.5t-6 -1.5h-46h-47q-9 0 -14 -5t-5 -14v-8v-8
q0 -12 5 -17t17 -5h31.5h31.5h6h7l-4 -10l-4 -10q0 -1 -2 -2.5t-4 -1.5h-17h-17h-16h-17q-9 -1 -14 -6t-5 -14v-8.5v-8.5q0 -10 5 -15t15 -5h24.5h24.5q0 -2 -0.5 -3t-0.5 -2q-18 -47 -35 -93t-34 -93q-4 -9 -6 -19t0 -20q4 -21 20 -34.5t37 -14.5q25 -1 42.5 9.5t24.5 32.5
q7 19 13 37.5t12 37.5q1 4 3.5 6t6.5 2q55 -1 110 -1h110q12 0 14.5 -1.5t6.5 -13.5q5 -15 10 -30.5t10 -30.5q6 -23 24.5 -36.5t43.5 -11.5q17 1 32 12.5t20 27.5q4 13 1.5 25.5t-6.5 24.5q-16 45 -32.5 90t-33.5 90q-1 2 -1.5 4.5t-1.5 5.5h4h4h20.5h21.5q9 0 14 5t5 14v8
v8q0 11 -5 16t-16 5h-31.5t-31.5 1q-2 0 -4 1t-3 2l-4 10t-4 11v0zM521 649q-21 -62 -41 -124t-40 -123h81.5h81.5q-20 61 -40.5 123t-41.5 124z" />
    <glyph glyph-name="uniE93C" unicode="&#xe93c;" 
d="M1016 448q-2 -51 -12 -99q-9 -48 -27.5 -92.5t-45.5 -85.5t-64 -77q-38 -38 -81 -66q-42 -29 -88.5 -47.5t-96.5 -27.5q-50 -8 -104 -7q-50 2 -96 12t-89 28.5t-82 45.5q-40 27 -75 62q-36 37 -64 78t-46.5 85.5t-27.5 92.5q-9 49 -9 100q0 52 9 101q10 48 28.5 92.5
t46.5 85.5q27 40 64 77q38 37 79 65q42 28 87.5 46.5t94.5 27.5q50 9 103 8q50 -1 97 -11q48 -9 91.5 -28t83.5 -46t75 -63q37 -37 64 -78t45.5 -85.5t28.5 -93.5q9 -48 11 -100v0zM983 449q0 98 -37 184q-36 86 -100 150t-150 101t-185 37q-97 0 -183 -36
q-86 -37 -150 -101t-101 -150q-37 -85 -38 -184q0 -98 37 -184t100.5 -149.5t149.5 -101.5q85 -37 182 -37q99 -1 186 36q86 37 150.5 101t101.5 150t37 184zM513 908q8 0 17 0.5t18 -0.5q7 0 13.5 -1.5t13.5 -2.5q1 0 2.5 -0.5t2.5 -0.5q12 0 23.5 -3t22.5 -6
q10 -3 21 -5.5t21 -5.5q11 -5 22.5 -10t22.5 -10q13 -7 25.5 -14.5t25.5 -15.5q24 -15 45.5 -33.5t40.5 -40.5q13 -14 25 -28.5t22 -30.5q17 -26 30.5 -54t22.5 -59q3 -14 7 -27.5t7 -26.5q2 -10 3.5 -20t1.5 -20q1 -28 1 -56.5t-5 -56.5q-4 -30 -12.5 -58t-19.5 -56
q-6 -15 -14 -29.5t-16 -28.5q-18 -28 -39 -53.5t-46 -47.5q-21 -19 -44 -34.5t-47 -29.5q-17 -8 -33.5 -15.5t-34.5 -12.5q-11 -3 -21.5 -7.5t-21.5 -5.5q-22 -4 -44 -8.5t-45 -2.5q-11 0 -21.5 -0.5t-21.5 0.5q-15 1 -30.5 3.5t-31.5 5.5q-8 1 -16 2.5t-15 3.5t-13 4.5
t-13 4.5q-11 2 -21.5 6.5t-21.5 9.5q-13 7 -26.5 13.5t-25.5 13.5q-10 6 -19.5 13.5t-18.5 14.5q-34 25 -62.5 56.5t-50.5 67.5q-12 20 -22 40.5t-18 41.5q-6 17 -10.5 34t-7.5 35q-4 16 -5.5 33t-3.5 34v22v22q2 17 4 33.5t5 33.5q2 11 5 22t6 21q5 22 13.5 42t19.5 40
q17 32 38.5 60.5t47.5 54.5q23 23 49 41.5t54 34.5q15 8 30 14.5t31 12.5q12 5 25 9t26 6q26 6 52.5 10t54.5 1v0zM300 210q9 9 18.5 17.5t18.5 16.5q26 25 52 49.5t51 48.5q24 23 48 45.5t48 45.5q29 27 57.5 54.5t57.5 55.5q2 2 5 4.5t7 4.5l36 14t37 14q-2 -11 -4 -21
l-4 -20q-2 -9 -4 -17.5t-4 -16.5q0 -2 -1.5 -3.5l-2.5 -2.5q-16 -17 -32.5 -34.5t-32.5 -34.5l-59.5 -59.5l-58.5 -58.5q-24 -24 -47.5 -48.5t-47.5 -48.5q-1 -1 -1.5 -3t-1.5 -4h63h62q47 48 95.5 96t96.5 97q4 -5 8 -9l7 -7l36 -36l35 -35q2 -2 4.5 -3.5t5.5 -3.5v96v95
v95v96h-95h-96h-96h-97l48.5 -48.5l47.5 -47.5q-48 -48 -96 -95q-48 -48 -95.5 -96t-95.5 -96l-96 -96h62.5h60.5v0zM412 558q0 1 0.5 1.5l0.5 0.5q12 -6 23.5 -12t23.5 -13l15 15l15 15q-8 4 -14.5 7.5t-13.5 6.5t-14 5.5t-13 8.5q2 6 2.5 12t-1.5 12q-9 22 -30 32t-43 -13
q-5 -5 -10.5 -10t-10.5 -11q-3 -3 -5 -6t-5 -6q21 -27 41 -54.5t41 -55.5q10 4 15.5 11.5t11.5 13.5q-7 11 -14.5 20.5t-14.5 19.5v0zM192 466q12 -37 24 -74.5t25 -75.5l15.5 15.5l14.5 14.5q-1 3 -3 6.5t-2 7.5q-1 2 -1 5t1 5q5 6 10.5 11.5t10.5 11.5q5 -3 9.5 -6t8.5 -6
l13.5 13.5l12.5 12.5l-1.5 3t-0.5 2q-7 5 -13.5 10t-13.5 10q-18 13 -36.5 27t-37.5 27q-6 5 -8 4.5t-7 -5.5q-5 -4 -10 -8.5t-11 -10.5v0zM339 478q3 3 5.5 6t5.5 5q11 12 14.5 25.5t-5.5 29.5q-11 21 -31.5 27.5t-41.5 -12.5q-5 -5 -10 -10.5t-10 -10.5q-3 -3 -6 -5.5
t-6 -5.5q22 -29 43 -57l42 -56q7 7 13.5 14t13.5 14q-7 9 -13.5 17.5t-13.5 18.5v0zM406 599q-3 3 -6.5 6t-6.5 6q-4 -3 -6.5 -6t-5.5 -6q3 -4 5.5 -7t5.5 -7q7 0 8.5 5t5.5 9v0zM260 418q-6 2 -9.5 7.5t-12.5 4.5q3 -6 5.5 -12t5.5 -13q3 4 6 7t5 6v0zM324 512q0 2 1 5t2 7
l-4.5 4.5l-5.5 5.5q-4 -3 -6.5 -5.5t-5.5 -4.5q8 -11 11.5 -13.5t7.5 1.5z" />
    <glyph glyph-name="uniE93D" unicode="&#xe93d;" 
d="M510 -53h-157h-158q-78 0 -130.5 52.5t-52.5 130.5v159v158.5v159.5v159q0 78 52.5 130t130.5 52h159h160h159h160q75 0 127.5 -52.5t52.5 -127.5v-160v-160v-160v-161q0 -75 -52.5 -127.5t-127.5 -52.5h-81h-80.5h-80.5h-81v0zM849 295q-8 65 -16 131q-8 65 -15.5 130.5
t-15.5 130.5q-8 66 -16 131q-57 -22 -111 -44t-108 -45q-4 -2 -8 -6t-7 -9q-39 -55 -77.5 -110t-78.5 -109q-31 -43 -62 -88q-30 -44 -60.5 -88t-62.5 -86q-32 -43 -67 -82h60h58q11 21 21 39.5t20 35.5q4 8 9 14.5t10 13.5q21 29 41.5 58t40.5 57h104.5h103.5
q-1 -19 4.5 -38t-15.5 -36h126.5h121.5v0zM579 621q-34 -48 -67.5 -96.5t-68.5 -98.5h82h81q-5 49 -10.5 97t-10.5 95l-3 1.5l-3 1.5v0z" />
    <glyph glyph-name="uniE93E" unicode="&#xe93e;" 
d="M462 828h61h60v-165v-165.5v-165.5v-166h-60h-61v166v165v165v166zM39 388q-5 50 1 97t21 91t39 85t56 79q52 60 129 102q76 43 165.5 55t185.5 -13q96 -24 188 -100q37 -30 65 -66q29 -35 49.5 -75.5t32.5 -84.5t15 -91q5 -61 -3 -116q-9 -56 -30 -107t-55 -97
q-33 -46 -79 -86v-7.5v-6.5q0 -4 0.5 -7.5t1.5 -8.5q40 30 71 65.5t54 77.5q25 44 41 90t22.5 93t3.5 96q-2 48 -15 98q-12 44 -30 83q-18 40 -42.5 75.5t-55.5 66.5t-68 58q-58 42 -123 65t-134 27q-51 4 -99 -3q-48 -6 -93.5 -21.5t-87.5 -39.5q-42 -25 -80 -58t-68 -71
t-51.5 -80.5t-34.5 -88.5q-13 -47 -18 -97q-7 -63 4.5 -124.5t37.5 -119.5t64 -107.5t92 -88.5v17v14q-39 33 -69 70q-31 37 -52.5 78.5t-33.5 87.5q-13 45 -17 94v0zM673 166h57.5h56.5v115v114v114v114h-57h-57v-115v-114.5v-113.5v-114zM374 166v87v86v87v87
q-32 -2 -63.5 -0.5t-62.5 -4.5v-86v-85v-85v-86h63h63v0zM397 -23h12h13v30v29h19.5h18.5q7 -15 14.5 -29.5t14.5 -29.5h13h13q-8 16 -15 30.5t-14 27.5q2 2 2.5 3.5t1.5 1.5q13 5 17.5 16t4.5 24q-1 13 -8 23.5t-21 11.5q-21 3 -42.5 3.5t-43.5 1.5v-72.5v-70.5v0zM422 53
v24v26q12 0 23 1t22 -2q17 -3 19 -19t-12 -30h-25.5h-26.5v0zM282 16h25.5h25.5q4 -12 9 -23t9 -21h12.5h11.5q-14 38 -28.5 74t-28.5 73q-6 0 -11.5 -0.5t-10.5 -0.5q-14 -37 -28.5 -73t-28.5 -73h12.5h12.5q4 11 8.5 21.5t9.5 22.5v0zM326 33h-19h-19q5 12 9 23l8 22h2h2
q4 -11 8.5 -21.5t8.5 -23.5v0zM647 86q-11 29 -45.5 33t-54.5 -20q-16 -20 -17.5 -41.5t4.5 -44.5q7 -22 28 -34t45 -8q22 3 34 18.5t12 41.5h-11h-12q-1 -19 -9.5 -30.5t-27.5 -14.5q-24 7 -31 23t-7 37q-1 24 8.5 37t30.5 20q14 -3 22 -12t11 -22h12h13q-2 5 -2.5 9
t-2.5 8v0zM672 118q1 -4 1 -7.5v-7.5h22.5h22.5v-66v-65h13.5h13.5v65.5v66.5h23h23v7v7h-59.5h-59.5v0z" />
    <glyph glyph-name="uniE93F" unicode="&#xe93f;" 
d="M393 659q-50 -88 -87 -153t-40 -69q-36 -64 -56 -98.5t-30 -50.5q-6 -11 -16 -28.5t-17 -30.5q-8 -13 -27 -47t-39 -68l-48 -82l117 -2q81 -1 100 0.5t25 9.5q4 4 28 45t55 94q30 53 54 95t28 48q4 7 17 29t27 46t41 70.5t51 86.5q42 72 51.5 94.5t0.5 31.5
q-2 3 -18.5 30.5t-37.5 63.5q-21 37 -37 64t-18 28q-1 2 -38 -59t-86 -148v0zM675 476q-18 -10 -49 -26.5t-57 -30.5q-25 -13 -44 -23.5t-20 -10.5q-2 -2 8 -16.5t27 -33.5q7 -8 20 -24t23 -29t19 -24.5t12 -13.5q4 -4 44.5 -53.5t97.5 -119.5l29 -37l108 -1q59 -1 82.5 0.5
t23.5 5.5q0 2 -1.5 5.5t-4.5 4.5q-2 2 -13.5 20.5t-24.5 43.5q-15 25 -26 43.5t-13 19.5q-1 1 -4.5 6.5t-6.5 11.5t-8.5 16.5t-10.5 19.5q-6 9 -18 30t-24 41t-26 44t-21 37t-14 25.5t-10 15.5q-3 4 -10.5 16.5t-15.5 26.5t-15 24t-8 10q-2 0 -16.5 -7t-32.5 -17v0zM466 328
q-27 -45 -57 -96q-29 -51 -53.5 -94t-40.5 -72q-16 -28 -15 -29t17 7.5t38 21.5q21 13 61.5 36.5t76.5 44.5q76 43 97.5 57.5t15.5 18.5q-2 1 -19.5 22.5t-40.5 50.5q-23 28 -39.5 48.5t-17.5 20.5t-8 -11t-15 -26v0z" />
    <glyph glyph-name="uniE940" unicode="&#xe940;" 
d="M1016 445q2 -94 -36 -187q-39 -92 -110.5 -164t-171.5 -113q-101 -41 -224 -33q-94 7 -178 48q-85 41 -149 109t-101 158q-37 91 -35 197q2 104 44 196q43 92 115 160t168 105t205 31q94 -4 181 -45q86 -42 152 -110t104 -158q39 -91 36 -194v0zM284 338q58 57 115 113
t115 112q60 -58 117 -113t110 -106q29 30 55.5 56t50.5 50l-83 83q-42 41 -83.5 83t-83.5 84l-83 83q-41 -42 -83 -84q-42 -41 -84.5 -83.5l-84.5 -84.5l-84 -84q24 -25 50.5 -52t55.5 -57v0zM404 221q31 -30 58 -57t53 -52q26 25 53.5 51.5t56.5 54.5q-28 29 -54.5 56.5
t-51.5 53.5q-30 -28 -58.5 -54.5t-56.5 -52.5v0z" />
    <glyph glyph-name="uniE941" unicode="&#xe941;" 
d="M512 560q-62 -65 -124 -129t-124 -128.5t-124 -128.5t-123 -128q-1 0 -2 1l-2 2q62 99 124 199q62 99 124.5 199t124.5 200l126 200q63 -100 125 -200q63 -101 125 -200.5t124 -199.5q63 -99 125 -199q-1 0 -2 -1t-2 -1q-62 64 -123 128l-124 128t-124 129
q-62 64 -124 129v0zM738 206h-113h-113h-113h-114q23 23 43 43.5t40 40.5q3 3 9 2.5t10 -0.5h77q45 0 87 0.5t72 0.5h29l33.5 -34t52.5 -53v0zM425 351q23 24 43 45t37 39q23 -21 46.5 -41t49.5 -43h-88.5h-87.5v0z" />
    <glyph glyph-name="uniE942" unicode="&#xe942;" 
d="M512 622h121.5h121.5h6h6q14 -1 18.5 -8.5t-2.5 -20.5q-22 -40 -44 -79.5t-44 -79.5l-40 -72t-39.5 -72t-39.5 -72l-40 -72q-3 -5 -6 -10.5t-11 -6.5q-9 -1 -15 1t-11 11q-31 57 -62 113q-32 57 -63 113.5t-62 113.5q-31 56 -63 113q-8 15 -4 21.5t23 6.5h125h125v0v0v0z
M627 488q2 -13 3.5 -23t3.5 -20q1 -10 3 -19.5t4 -21.5q11 6 14 14.5t3 17.5q1 14 1 28.5v29.5q0 8 2.5 13.5t9.5 10.5l10 8l10 8q4 4 7 8.5t-2 10.5q-4 6 -9 5.5t-10 -2.5q-5 -3 -10 -5.5t-9 -6.5q-9 -7 -17.5 -7.5t-18.5 3.5q-13 5 -27 9l-28 8q-8 3 -15.5 1.5
t-14.5 -10.5l19 -9.5t17 -9.5q9 -5 19 -8.5t16 -14.5q-9 -8 -18 -15t-18 -15q-8 -8 -17 -13t-21 -1l-1 -1l-1 -1q6 -8 11.5 -16t11.5 -15q3 6 5.5 12.5t7.5 10.5q13 9 27.5 17.5t31.5 18.5v0zM945 244q-20 59 -41 117.5t-42 116.5q-10 27 -19.5 53.5t-18.5 52.5q-1 3 -4 6
t-5 6l-5.5 -5.5l-5.5 -5.5q-1 -1 -1.5 -2l-1.5 -3q-31 -55 -62 -111t-62 -111.5t-62 -110.5q-30 -56 -61 -112q-4 -6 -7 -12t3 -13q5 -7 11.5 -5t12.5 4l120 26t121 26q26 6 52.5 12t52.5 12q16 4 24 13.5t7 26.5q-1 3 -2.5 8.5t-3.5 10.5v0zM96 188q5 -2 11 -3.5t12 -2.5
q64 -14 127.5 -28t126.5 -27q24 -6 48 -11l48 -10q3 -1 6.5 0t6.5 1q0 4 -0.5 7.5t-0.5 7.5q-1 1 -1.5 2.5t-1.5 2.5q-32 57 -63 114q-32 57 -63.5 113.5t-63.5 113.5q-31 57 -63 114q-2 4 -6 7.5t-7 6.5l-6 -8t-5 -9l-30 -86l-30 -86l-30 -86l-30 -86q-1 -5 -2.5 -9.5
t-1.5 -6.5q0 -13 4.5 -20.5t14.5 -10.5v0zM511 644h123.5h123.5q6 0 13 1t10 5q5 7 -0.5 12t-9.5 9q-50 59 -100.5 118t-101.5 118q-6 7 -12 14.5t-13 14.5q-12 12 -27.5 12t-28.5 -11q-3 -2 -5.5 -5.5t-5.5 -6.5q-52 -59 -104 -118.5t-104 -119.5q-6 -7 -12 -13.5
t-11 -13.5q-5 -8 -3.5 -11.5t10.5 -4.5h6.5h7.5h122h122v0v0v0zM967 266v6v5v91v90.5v90.5v91q0 6 -0.5 12.5t-1.5 13.5q-2 7 -4.5 14t-4.5 15q-24 -13 -46 -24.5t-43 -23.5q-14 -8 -20.5 -25t-1.5 -32q14 -39 28 -77q13 -38 27 -76.5t28 -77.5q13 -38 27 -76q2 -5 4 -9.5
t4 -8.5h2t2 1v0zM65 649q0 -47 -1 -93v-92.5v-92.5v-93q0 -3 1 -6l2 -6q5 5 7.5 10.5t3.5 11.5q25 71 50 143l50 144q4 12 6 23.5t-8 23.5q-2 1 -2 3v4q0 8 -4.5 12.5t-10.5 7.5q-20 11 -40 22.5t-42 23.5q-7 -11 -9.5 -22.5t-2.5 -23.5v0zM577 934q3 -4 5.5 -7.5t5.5 -6.5
q13 -16 26 -31l26 -30q38 -44 75.5 -88t75.5 -89q11 -13 26 -13.5t27 -7.5q1 0 2.5 1t3.5 1q20 12 41 23t41 22q8 5 8.5 8.5t-6.5 9.5q-7 7 -15 13t-17 11q-48 29 -96.5 57t-97.5 56q-32 18 -64 36.5t-64 37.5q-1 -1 -1.5 -2t-1.5 -1v0zM450 935q-3 -1 -5 -2t-4 -3
q-40 -22 -80 -45t-79.5 -46t-79.5 -46q-39 -23 -79 -46q-5 -3 -9.5 -6t-8.5 -7q-12 -11 -11.5 -17t14.5 -15q12 -7 24 -13.5t24 -13.5q11 -7 22 -11t24 4q1 1 3 1h3q10 -3 16.5 1.5t12.5 11.5q50 58 101 116.5t101 116.5q4 4 7 8.5t7 8.5q-1 1 -2 1.5t-1 1.5v0zM132 154
q5 -3 9 -6t9 -5q65 -38 130.5 -76t130.5 -75q16 -9 31 -17.5t31 -16.5q17 -8 24.5 -2.5t7.5 24.5q0 15 -0.5 29.5t-0.5 28.5q0 20 -9 31t-28 15q-73 16 -145.5 32.5t-145.5 32.5q-11 3 -21.5 5t-20.5 4q-1 -1 -1 -2t-1 -2v0zM892 155q-6 -1 -11 -1.5t-11 -1.5
q-43 -10 -86 -19t-86 -19q-33 -7 -65.5 -14t-65.5 -14q-14 -3 -25 -12t-13 -21q-4 -19 -3.5 -39.5t1.5 -40.5q0 -11 8.5 -15.5t18.5 -1.5q7 3 13.5 6t12.5 6l72 42t71.5 42t71.5 41l72 42q7 4 13 7.5t13 7.5q-1 1 -1 2.5v2.5v0z" />
    <glyph glyph-name="uniE943" unicode="&#xe943;" 
d="M941 115l-485 804l-146 -312q-13 -28 -11 -58.5t19 -56.5l45 -68q-39 -12 -76 -32q-38 -20 -74.5 -49.5t-71.5 -68.5q-36 -39 -70 -87q-16 -23 -31.5 -50.5t-27.5 -54.5q-14 -34 6.5 -64.5t57.5 -30.5h294q38 0 55.5 34t-4.5 65l-99 140l-68 -48l77 -108h-232q7 16 17 34
t22 35q33 45 66 81q33 35 67.5 61.5t69.5 43.5q35 18 70 25l202 -308q16 -25 42.5 -39t56.5 -14h305l-76 126v0zM388 538q-5 8 -6 17t3 17l80 171l231 -383q-51 34 -109 56.5t-119 22.5h-7.5h-7.5l-65 99v0zM712 72q-9 0 -17 4t-12 12l-174 264q57 -10 113 -44
q55 -33 102 -72.5t81 -77.5q33 -37 47 -57l18 -29h-158v0z" />
    <glyph glyph-name="uniE944" unicode="&#xe944;" 
d="M511 956q-105 0 -197 -40t-161 -109t-109 -161t-40 -197t40 -197t109 -161t161 -109t197 -40t197 40t161 109t109 161t40 197t-40 197t-109 161t-161 109t-197 40v0zM283 578q0 47 33.5 80.5t80.5 33.5h255q26 0 48.5 -8.5t36.5 -24.5l-132 -66h-188q-14 0 -24 -10
t-10 -24v-81l-100 -51v151v0zM770 411q0 -47 -33 -80.5t-80 -33.5h-275v-99q0 -12 -8.5 -21t-21.5 -9l-67 1v164l128 66h223q14 0 23.5 10t9.5 24v100l101 52v-174v0z" />
    <glyph glyph-name="uniE945" unicode="&#xe945;" 
d="M294 57h-71h-70h-70h-74q4 6 6.5 10.5t5.5 6.5q6 4 12.5 6t12.5 3q40 8 61.5 34t27.5 63q5 26 5 53t1 53q1 47 2 93q2 47 3 93.5t2 92.5q2 47 3 94q0 13 2 26t1 25q-1 28 -12 53.5t-48 34.5q-13 4 -26 7.5t-26 6.5q-3 1 -5.5 2.5t-5.5 3.5q0 3 0.5 6.5t0.5 8.5h104.5
h106.5q37 -60 70.5 -123.5t69.5 -126.5t71 -126.5t71 -129.5l62 128q31 63 62 126.5t62 125.5q31 63 61 126h112h111v-9.5v-9.5q-14 -3 -27 -5.5t-26 -6.5q-22 -6 -40 -18t-26 -36q-3 -10 -4.5 -20.5t-1.5 -21.5q0 -22 1 -43.5t2 -42.5q1 -69 2 -138.5t2 -138.5
q1 -40 2 -80.5t3 -81.5q2 -40 21.5 -65.5t60.5 -31.5q11 -2 21.5 -5.5t22.5 -6.5q0 -3 0.5 -6.5t1.5 -7.5h-89h-88.5h-88.5h-88q-2 7 0 11t8 6q7 2 14 5t14 4q45 6 64.5 31.5t19.5 69.5q1 17 -0.5 33.5t-1.5 32.5q-1 33 -1 65.5t-1 65.5q-1 62 -2.5 125t-3.5 126
q-1 32 -1.5 65.5t-1.5 69.5q-29 -58 -58 -117q-28 -58 -56.5 -115.5t-56.5 -114.5l-56 -114q20 -36 39 -71.5t39 -71.5q-3 -2 -5 -4l-6 -6q-26 33 -60 45t-73 14l-74 132q-37 67 -74 133t-75 133q-37 66 -74 133v-13.5v-12.5q-1 -46 -2 -93q0 -46 -0.5 -93t-1.5 -93
q-1 -47 -1 -93q-1 -34 -2.5 -67.5t-1.5 -67.5q0 -18 3 -36.5t10 -36.5q9 -24 27.5 -36.5t42.5 -17.5q9 -2 17.5 -4t17.5 -4q7 -1 9.5 -5.5t2.5 -12.5v-1z" />
    <glyph glyph-name="uniE946" unicode="&#xe946;" 
d="M32 612v65.5v64.5q-1 20 8 33.5t28 20.5l108 38t107.5 38t107.5 38t108 37q9 3 20 2.5t20 -3.5q52 -19 104 -37t104 -36.5t104 -36.5q52 -19 104 -37q27 -10 36 -22.5t9 -40.5v-124.5v-125.5q0 -28 -9 -41t-36 -22q-52 -18 -104 -37l-104 -36t-104 -37l-104 -36
q-11 -3 -24 -3t-24 3q-52 18 -104 37q-53 18 -105 36.5t-105 37.5q-52 18 -104 37q-24 8 -32.5 20.5t-8.5 36.5v65.5v64.5v0v0v0zM92 309l96 -34l96 -34t95 -34q48 -17 96 -35q22 -7 41.5 -7t41.5 8l96 34q48 18 96.5 35t96.5 34q49 17 97 34q40 14 51 32.5t2 59.5
q-9 -6 -19 -13t-21 -11l-102 -36l-102 -36l-102 -36t-102 -37q-17 -6 -32.5 -5.5t-32.5 6.5q-51 18 -101 35q-50 18 -100.5 36t-101.5 35q-50 18 -101 36q-12 5 -23.5 12t-23.5 14q-5 -46 5 -61.5t54 -31.5v0zM957 269q-51 -19 -103 -37q-51 -18 -102.5 -36.5t-102.5 -35.5
q-51 -18 -103 -36q-13 -4 -28.5 -4.5t-28.5 4.5l-100 34t-99.5 34.5t-99.5 35.5l-100 36q-15 5 -29 13t-28 15q-6 -44 4 -60.5t54 -31.5q49 -18 99 -35q49 -18 98.5 -35.5t99.5 -34.5t99 -34q13 -5 28.5 -5t28.5 5l100 34q50 18 100 35.5t100 34.5q49 18 99 36q41 14 51 31
t4 60q-10 -6 -20 -12.5t-21 -10.5v0zM95 89q50 -17 99 -35q49 -17 98.5 -34.5t98.5 -34.5t99 -34q12 -4 26 -4t26 4q51 17 102 35t101.5 36t101.5 36l102 36q36 13 46.5 32.5t1.5 55.5q-11 -6 -22 -13t-24 -12l-102 -36q-52 -19 -103 -37t-103 -36q-51 -18 -103 -35
q-11 -4 -23.5 -4t-23.5 4q-51 18 -102 35q-51 18 -101.5 36t-101.5 36l-102 36q-14 5 -27 12.5t-26 14.5q-3 -49 6 -63t56 -31v0z" />
    <glyph glyph-name="uniE947" unicode="&#xe947;" 
d="M362 101q39 -39 76 -76.5t74 -74.5h2h1q3 4 5.5 7t5.5 6q43 44 86.5 87.5t87.5 86.5q24 23 45.5 48t41.5 51q1 2 3 4.5t4 4.5q-50 -28 -100 -55.5t-105 -46.5q-54 -20 -110.5 -30t-116.5 -12v0zM1008 451l-121 121l-120.5 120.5t-121.5 120.5q-60 61 -120 121q-3 3 -5 6
t-5 6h-1h-2l-78 -78l-78 -78l-85 -85q-42 -42 -84.5 -84t-84.5 -84q-42 -43 -85 -85q-2 -3 -5 -5l-6 -4v-2v-1q2 -2 4.5 -3.5t4.5 -3.5q20 -16 40 -32.5t41 -30.5q60 -41 123 -69q64 -28 130 -42.5t135 -17.5q69 -2 141 9q54 8 105 23q51 16 98.5 38.5t91.5 51.5
q44 30 85 66q3 3 6 5.5t7 4.5v2v2q-2 2 -5 4t-5 4v0zM625 318q-51 32 -104 55q-54 23 -109.5 38t-113.5 22t-118 7q85 41 176 59q92 18 181.5 14t174.5 -29t156 -71q-56 -36 -116.5 -59.5t-126.5 -35.5v0z" />
    <glyph glyph-name="uniE948" unicode="&#xe948;" 
d="M493 822v52.5v51.5q0 5 1.5 9.5t3.5 8.5q3 4 8 7.5t11 1.5q8 -3 12.5 -9.5t4.5 -14.5v-46v-46q0 -12 2 -14t13 -3q64 -6 123.5 -25t111.5 -58q45 -32 77.5 -74t55.5 -92q12 -28 21.5 -56t15.5 -57q5 -30 9 -60.5t7 -60.5q2 -21 1.5 -41.5t-1.5 -41.5q-2 -45 -17.5 -85
t-45.5 -75q-25 -30 -57 -52t-68 -39q-36 -16 -75 -27t-78 -17q-32 -4 -64.5 -6.5t-64.5 -2.5q-31 1 -63 4.5t-63 9.5q-51 9 -100 26.5t-92 47.5q-41 28 -69.5 64.5t-43.5 83.5q-4 13 -6.5 26t-4.5 27q-8 37 -3.5 74t7.5 74q5 49 17 96t33 91q33 72 85 124.5t126 83.5
q32 14 66 23t69 13q8 0 16.5 1.5t18.5 2.5v0zM502 166q44 1 80.5 4.5t71.5 12.5q35 8 67.5 21t60.5 35q30 24 45.5 54t16.5 68q0 22 -2.5 43.5t-7.5 42.5q-10 47 -33 86.5t-59 71.5q-35 31 -76 51t-87 30q-42 10 -84 7.5t-84 -14.5q-34 -11 -65.5 -28t-59.5 -42
q-31 -28 -52.5 -62t-34.5 -74q-9 -29 -12.5 -60t-1.5 -63q0 -10 2 -20t5 -19q11 -32 33.5 -54.5t51.5 -38.5q32 -18 66.5 -28t70.5 -16q24 -4 47.5 -5.5t40.5 -2.5v0z" />
    <glyph glyph-name="uniE949" unicode="&#xe949;" 
d="M1015 -56h-14h-12h-121q-60 -1 -121 -1h-121q-61 1 -121 1q-55 1 -106 12t-97 32.5t-87 52.5q-42 31 -78 71q-34 37 -58 78q-25 40 -41 83.5t-23 90.5q-8 46 -7 96q2 82 29 156.5t77 139.5q31 39 66 71q35 31 74.5 55t83.5 40q44 15 93 23q64 10 125 5q61 -4 116.5 -23
t107.5 -52q51 -33 97 -80q33 -34 58 -72q26 -38 43.5 -79t26.5 -85q9 -45 10 -92q1 -64 1 -127v-127.5v-126.5v-127q0 -3 -0.5 -6.5t-0.5 -8.5v0zM649 246h-65.5h-70.5q-49 0 -91 22q-42 21 -69.5 56.5t-38.5 80.5q-10 46 2 94t44 84q31 35 72.5 52.5t89.5 15.5
q47 -1 90 -26q52 -31 77.5 -76.5t26.5 -104.5v-70v-70q26 -26 51.5 -51t50.5 -51q26 -25 51.5 -51t51.5 -51q1 0 2 0.5t2 1.5q0 4 0.5 8t0.5 8q-1 43 0 86v87.5v86.5t-1 87q-1 45 -11 86q-9 41 -27 78t-44 70t-60 63q-60 52 -131.5 77t-152.5 23q-44 -2 -84 -11t-77 -26
t-70 -41q-33 -25 -62 -57q-56 -62 -83 -138t-24.5 -154.5t34.5 -152.5t92 -132q61 -58 134 -86.5t157 -28.5q40 -1 81 -1h82h81h82h10h10q-52 53 -105 105t-108 107v0zM512 331q50 0 84.5 34t34.5 83t-35 84t-83 36q-49 0 -83.5 -34.5t-34.5 -84.5t33.5 -84t83.5 -34z" />
    <glyph glyph-name="uniE94A" unicode="&#xe94a;" 
d="M946 574q-15 -5 -29.5 -10t-28.5 -10q-26 72 -64 129q-37 56 -87 95t-113 60q-63 20 -139 21q-66 0 -123 -16t-104.5 -47t-85.5 -77q-37 -46 -64 -106q-25 -58 -33 -114q-8 -57 0.5 -112t33.5 -109q25 -53 66 -105q38 77 76 152q38 76 75.5 151.5t75.5 151.5
q37 76 75 152q4 -3 7 -5.5t5 -5.5q22 -43 45 -86t45.5 -86.5t45.5 -86.5q23 -44 47 -89q43 14 85 28q43 15 85.5 30t85.5 30t86 29q1 -2 1.5 -3.5t1.5 -3.5q-100 -49 -200 -97q-99 -49 -199 -97.5t-200 -96.5l-200 -98q5 -14 30 -33q25 -18 61.5 -34.5t80.5 -28.5
q45 -12 88 -12q72 -1 142 23t127 70.5t97 115.5q41 69 54 158q14 8 29.5 16t32.5 17q3 -47 -6.5 -89t-27.5 -82q-19 -47 -46 -86q-27 -40 -60.5 -72.5t-73.5 -58.5t-87 -44q-100 -38 -198 -32q-98 5 -182.5 46t-148.5 111q-64 71 -95 163q-36 106 -25 207t58 184.5
t124 143.5t172 85q100 26 194 10q95 -15 172.5 -62t134.5 -120q56 -73 81 -164v0zM377 331q1 -1 2 -2.5t2 -2.5q45 18 90.5 35t92.5 36q-21 43 -42.5 85.5t-44.5 87.5q-26 -63 -50.5 -122t-49.5 -117zM666 203h60h60q-16 27 -31 52t-30 51q-24 -11 -47 -21t-46 -21
q10 -18 18.5 -33t15.5 -28v0z" />
    <glyph glyph-name="uniE94B" unicode="&#xe94b;" 
d="M577 938q47 -24 63 -75.5t-8 -99.5l-367 -748q-24 -49 -73.5 -65.5t-96.5 8.5q-46 24 -62 75.5t7 99.5l368 748q24 49 73.5 65.5t95.5 -8.5v0zM840 427l-142 -286l62 -126q23 -48 72.5 -64.5t96.5 7.5q46 25 62 76.5t-7 99.5l-144 293v0z" />
    <glyph glyph-name="uniE94C" unicode="&#xe94c;" 
d="M10 449q0 103 40 195q39 91 107 159t159 107q92 40 195 40q104 0 195 -40q92 -39 160 -107t107 -160q40 -91 39 -195q0 -103 -39 -195q-40 -91 -108 -159t-159 -107q-91 -40 -195 -39q-104 0 -195 39q-91 40 -159 108t-107 159q-40 91 -40 195v0zM642 364q2 1 3.5 2
t2.5 2q44 30 56 80.5t-13 97.5l-50 94l-50 94q-27 51 -80 67.5t-104 -9.5t-70 -77.5t5 -102.5q6 -13 13 -26l14 -26q1 -3 2.5 -6t3.5 -6q-1 0 -1.5 -0.5l-1.5 -1.5q-46 -30 -59 -81t13 -100q25 -46 49.5 -92.5t49.5 -92.5l8 -14t9 -13q33 -38 81.5 -46.5t93.5 17.5
q46 26 63 74t-2 96q-6 13 -13 25.5t-13 25.5q-3 4 -5.5 9t-4.5 10q-2 -1 -3.5 -2t-3.5 -2q-52 -29 -107 -12.5t-83 68.5q-10 20 -20.5 39.5t-20.5 39.5q-8 13 -15 26.5t-14 26.5q22 14 45.5 19.5t49.5 0.5q34 -5 60 -23.5t42 -49.5q17 -32 33.5 -63.5t33.5 -62.5
q1 -1 1.5 -2.5t1.5 -2.5v0z" />
    <glyph glyph-name="uniE94D" unicode="&#xe94d;" 
d="M174 297q-33 -2 -58.5 5.5t-47.5 24.5q-23 18 -37 42t-19 53q-5 26 0 50.5t18 47.5q16 29 40.5 46.5t56.5 26.5q13 3 26 2.5t26 -0.5q24 1 46 6.5t42 17.5q27 15 46.5 36t32.5 48q9 18 12.5 37.5t3.5 40.5q1 20 3 41t11 40q17 36 45 58.5t67 29.5q40 6 75.5 -6t63.5 -43
q15 -17 24 -35.5t12 -40.5q4 -37 -5.5 -70t-37.5 -61q-18 -17 -38.5 -27t-43.5 -15q-4 -1 -8 -0.5t-9 0.5q-16 -2 -33 -2.5t-33 -4.5q-26 -5 -48.5 -16t-41.5 -31q-14 -15 -25 -30.5t-20 -34.5q-4 -9 -6.5 -19.5t-2.5 -21.5q1 -17 0.5 -34.5t0.5 -34.5q1 -34 13 -63.5
t35 -54.5q23 -24 50.5 -38.5t60.5 -19.5q9 -2 18 -1.5t18 0.5q23 0 44.5 -5.5t40.5 -17.5q28 -19 45.5 -44.5t23.5 -60.5q5 -30 -1.5 -57.5t-23.5 -51.5q-18 -25 -42.5 -41t-55.5 -21q-30 -5 -58 1t-53 23q-26 18 -42 43t-21 57q-2 14 -1.5 27t-0.5 26q-2 33 -14.5 61.5
t-35.5 52.5q-19 21 -42.5 34.5t-51.5 18.5q-12 3 -24.5 4t-19.5 2v0zM603 613q-18 -9 -37.5 -13t-39.5 -5q-10 0 -20 1t-19 -1q-25 -4 -46.5 -14.5t-39.5 -28.5q-28 -29 -38.5 -62.5t-2.5 -72.5q7 -38 29.5 -66t59.5 -44q13 -5 26.5 -8t27.5 -3q17 1 34.5 0t34.5 -6
q8 -2 17 -5t20 -7q-13 18 -15 35.5t8 34.5q10 19 26.5 24.5t36.5 3.5q-4 19 -6 36.5t-1 34.5q0 18 0.5 35.5t0.5 35.5q-19 -1 -33.5 6t-24.5 24t-7.5 33t14.5 32h-4h-1v0zM638 259l5 -5l6 -6q12 -11 21.5 -23t17.5 -26q11 -21 16 -42.5t7 -44.5q0 -9 -1 -18.5t0 -19.5
q5 -32 20 -56.5t40 -43.5q26 -19 55 -26t61 -1q23 4 42.5 14t35.5 26q28 28 39.5 62t3.5 74t-31 68t-62 44q-17 7 -35.5 9.5t-37.5 1.5q-25 0 -48 6t-44 20q-9 6 -18.5 12.5t-18.5 13.5q1 -22 18.5 -37t38.5 -15q7 0 14 -0.5t13 -2.5q18 -3 31.5 -20t10.5 -42
q-2 -19 -15 -33t-30 -17q-25 -4 -42.5 6t-24.5 31q-2 7 -2.5 14.5t-0.5 15.5q-1 24 -15 41t-33 19q-9 2 -18 2.5t-18 1.5q-1 -1 -1 -1.5v-1.5v0zM669 635q9 1 17.5 4.5t16.5 10.5q10 11 14.5 23t4.5 26q1 6 0.5 12.5t1.5 12.5q7 24 29 36.5t47 3.5q16 -6 25.5 -17.5
t12.5 -27.5q2 -17 -3 -30.5t-18 -24.5q-10 -9 -21 -11.5t-23 -2.5q-15 1 -27.5 -5t-22.5 -17q-6 -6 -9 -13.5t0 -17.5q3 3 6 7t6 7q21 18 46.5 26t51.5 12q14 1 28 1.5t28 1.5q6 0 12 1t11 3q23 8 42 20.5t34 31.5q22 28 29 59t0 65q-5 27 -19 49t-35 39q-27 21 -56.5 27.5
t-61.5 2.5q-25 -4 -46 -15.5t-39 -30.5q-19 -21 -29 -45t-11 -52q-1 -14 -1 -27.5t-2 -27.5q-4 -24 -13.5 -46.5t-26.5 -41.5q-6 -7 -13 -14.5t-14 -14.5q7 0 14 -0.5t14 0.5v0z" />
    <glyph glyph-name="uniE94E" unicode="&#xe94e;" 
d="M586 679q-1 1 -2 1h-3q-28 -55 -57.5 -110.5t-59.5 -112.5h75h74q-7 57 -14 112t-13 110v0zM430 390q-3 -5 -6 -11t-7 -13h104.5h103.5q-1 7 -2 12.5t-2 11.5h-96h-95v0zM512 953q-105 0 -196 -39q-92 -40 -160.5 -108t-107.5 -160q-40 -92 -40 -196t40 -196
q39 -92 107.5 -160.5t160.5 -107.5q91 -40 196 -40q104 0 196 40q91 39 159.5 107.5t108.5 160.5q39 92 39 196t-39 196q-40 92 -108.5 160t-159.5 108q-92 39 -196 39zM750 175q-20 -1 -39.5 -0.5t-38.5 0.5q-12 1 -18.5 7t-7.5 19q-3 22 -6 44.5t-6 44.5q-1 2 -1.5 3.5
t-2.5 5.5h-124h-124l-26 -48t-25 -49q-6 -11 -14 -17t-20 -7q-25 -3 -59.5 -2.5t-42.5 7.5q-10 8 19 62l29 54h-46v24.5v40.5h42h41q4 6 9.5 16l5.5 10h-98v24.5v40.5h68.5h66.5q12 21 23 41t22 39q34 63 69 125.5t69 125.5q8 15 19.5 22.5t27.5 7.5h48t48 -1t31 -8t10 -29
q6 -47 13 -94t13.5 -94t13.5 -94l14 -94q6 -48 13 -96t13 -96q2 -19 -4.5 -26.5t-24.5 -8.5v0z" />
    </font>
</defs>
</svg>
